<svg xmlns="http://www.w3.org/2000/svg" xmlns:xlink="http://www.w3.org/1999/xlink" width="500" zoomAndPan="magnify" viewBox="0 0 375 374.999991" height="500" preserveAspectRatio="xMidYMid meet" version="1.2"><defs><clipPath id="509f931ad0"><path d="M 83 177 L 122 177 L 122 247 L 83 247 Z M 83 177 "/></clipPath><clipPath id="f4a5e7ea60"><path d="M 27.460938 190.621094 L 187.289062 152.765625 L 224.96875 311.867188 L 65.140625 349.722656 Z M 27.460938 190.621094 "/></clipPath><clipPath id="e3f3515993"><path d="M 27.460938 190.621094 L 187.289062 152.765625 L 224.96875 311.867188 L 65.140625 349.722656 Z M 27.460938 190.621094 "/></clipPath><clipPath id="801850aa43"><path d="M 27.460938 190.621094 L 187.289062 152.765625 L 224.96875 311.867188 L 65.140625 349.722656 Z M 27.460938 190.621094 "/></clipPath><clipPath id="515a08fd59"><path d="M 91 177 L 122 177 L 122 247 L 91 247 Z M 91 177 "/></clipPath><clipPath id="1a5afbf292"><path d="M 27.460938 190.621094 L 187.289062 152.765625 L 224.96875 311.867188 L 65.140625 349.722656 Z M 27.460938 190.621094 "/></clipPath><clipPath id="acc2219f11"><path d="M 27.460938 190.621094 L 187.289062 152.765625 L 224.96875 311.867188 L 65.140625 349.722656 Z M 27.460938 190.621094 "/></clipPath><clipPath id="4e8f901c19"><path d="M 27.460938 190.621094 L 187.289062 152.765625 L 224.96875 311.867188 L 65.140625 349.722656 Z M 27.460938 190.621094 "/></clipPath><clipPath id="a9cef24e74"><path d="M 44 207 L 220 207 L 220 345 L 44 345 Z M 44 207 "/></clipPath><clipPath id="bb633a659f"><path d="M 27.460938 190.621094 L 187.289062 152.765625 L 224.96875 311.867188 L 65.140625 349.722656 Z M 27.460938 190.621094 "/></clipPath><clipPath id="423fe80f0e"><path d="M 27.460938 190.621094 L 187.289062 152.765625 L 224.96875 311.867188 L 65.140625 349.722656 Z M 27.460938 190.621094 "/></clipPath><clipPath id="58c0c24322"><path d="M 27.460938 190.621094 L 187.289062 152.765625 L 224.96875 311.867188 L 65.140625 349.722656 Z M 27.460938 190.621094 "/></clipPath><clipPath id="bbae969cac"><path d="M 179 207 L 220 207 L 220 314 L 179 314 Z M 179 207 "/></clipPath><clipPath id="1d88babf13"><path d="M 27.460938 190.621094 L 187.289062 152.765625 L 224.96875 311.867188 L 65.140625 349.722656 Z M 27.460938 190.621094 "/></clipPath><clipPath id="4876a1a78c"><path d="M 27.460938 190.621094 L 187.289062 152.765625 L 224.96875 311.867188 L 65.140625 349.722656 Z M 27.460938 190.621094 "/></clipPath><clipPath id="81a7eb1222"><path d="M 27.460938 190.621094 L 187.289062 152.765625 L 224.96875 311.867188 L 65.140625 349.722656 Z M 27.460938 190.621094 "/></clipPath><clipPath id="9782255c0c"><path d="M 69 266 L 218 266 L 218 345 L 69 345 Z M 69 266 "/></clipPath><clipPath id="d6b82eef8b"><path d="M 27.460938 190.621094 L 187.289062 152.765625 L 224.96875 311.867188 L 65.140625 349.722656 Z M 27.460938 190.621094 "/></clipPath><clipPath id="3e037ce40b"><path d="M 27.460938 190.621094 L 187.289062 152.765625 L 224.96875 311.867188 L 65.140625 349.722656 Z M 27.460938 190.621094 "/></clipPath><clipPath id="6978adcdde"><path d="M 27.460938 190.621094 L 187.289062 152.765625 L 224.96875 311.867188 L 65.140625 349.722656 Z M 27.460938 190.621094 "/></clipPath><clipPath id="e1133f751d"><path d="M 204 305 L 218 305 L 218 314 L 204 314 Z M 204 305 "/></clipPath><clipPath id="64752e0c63"><path d="M 27.460938 190.621094 L 187.289062 152.765625 L 224.96875 311.867188 L 65.140625 349.722656 Z M 27.460938 190.621094 "/></clipPath><clipPath id="62a5cdf176"><path d="M 27.460938 190.621094 L 187.289062 152.765625 L 224.96875 311.867188 L 65.140625 349.722656 Z M 27.460938 190.621094 "/></clipPath><clipPath id="b5060b8405"><path d="M 27.460938 190.621094 L 187.289062 152.765625 L 224.96875 311.867188 L 65.140625 349.722656 Z M 27.460938 190.621094 "/></clipPath><clipPath id="7b4be5b08e"><path d="M 46 207 L 195 207 L 195 290 L 46 290 Z M 46 207 "/></clipPath><clipPath id="a945ddefc3"><path d="M 27.460938 190.621094 L 187.289062 152.765625 L 224.96875 311.867188 L 65.140625 349.722656 Z M 27.460938 190.621094 "/></clipPath><clipPath id="15924fd3fc"><path d="M 27.460938 190.621094 L 187.289062 152.765625 L 224.96875 311.867188 L 65.140625 349.722656 Z M 27.460938 190.621094 "/></clipPath><clipPath id="8f13d24a75"><path d="M 27.460938 190.621094 L 187.289062 152.765625 L 224.96875 311.867188 L 65.140625 349.722656 Z M 27.460938 190.621094 "/></clipPath><clipPath id="a4775e4869"><path d="M 179 207 L 195 207 L 195 215 L 179 215 Z M 179 207 "/></clipPath><clipPath id="f505a71d29"><path d="M 27.460938 190.621094 L 187.289062 152.765625 L 224.96875 311.867188 L 65.140625 349.722656 Z M 27.460938 190.621094 "/></clipPath><clipPath id="b606b30365"><path d="M 27.460938 190.621094 L 187.289062 152.765625 L 224.96875 311.867188 L 65.140625 349.722656 Z M 27.460938 190.621094 "/></clipPath><clipPath id="44c4d7532d"><path d="M 27.460938 190.621094 L 187.289062 152.765625 L 224.96875 311.867188 L 65.140625 349.722656 Z M 27.460938 190.621094 "/></clipPath><clipPath id="f1853976d7"><path d="M 123 195 L 145 195 L 145 256 L 123 256 Z M 123 195 "/></clipPath><clipPath id="e6dd6fe5b5"><path d="M 27.460938 190.621094 L 187.289062 152.765625 L 224.96875 311.867188 L 65.140625 349.722656 Z M 27.460938 190.621094 "/></clipPath><clipPath id="d1a0d38d30"><path d="M 27.460938 190.621094 L 187.289062 152.765625 L 224.96875 311.867188 L 65.140625 349.722656 Z M 27.460938 190.621094 "/></clipPath><clipPath id="9b1941ec1a"><path d="M 27.460938 190.621094 L 187.289062 152.765625 L 224.96875 311.867188 L 65.140625 349.722656 Z M 27.460938 190.621094 "/></clipPath><clipPath id="daca1e68b8"><path d="M 127 195 L 145 195 L 145 256 L 127 256 Z M 127 195 "/></clipPath><clipPath id="c6f9ace71e"><path d="M 27.460938 190.621094 L 187.289062 152.765625 L 224.96875 311.867188 L 65.140625 349.722656 Z M 27.460938 190.621094 "/></clipPath><clipPath id="a81a5abf69"><path d="M 27.460938 190.621094 L 187.289062 152.765625 L 224.96875 311.867188 L 65.140625 349.722656 Z M 27.460938 190.621094 "/></clipPath><clipPath id="f97da44749"><path d="M 27.460938 190.621094 L 187.289062 152.765625 L 224.96875 311.867188 L 65.140625 349.722656 Z M 27.460938 190.621094 "/></clipPath><clipPath id="35d4b7a42f"><path d="M 41 175 L 223 175 L 223 348 L 41 348 Z M 41 175 "/></clipPath><clipPath id="855d761a0a"><path d="M 27.460938 190.621094 L 187.289062 152.765625 L 224.96875 311.867188 L 65.140625 349.722656 Z M 27.460938 190.621094 "/></clipPath><clipPath id="e85379a7b7"><path d="M 27.460938 190.621094 L 187.289062 152.765625 L 224.96875 311.867188 L 65.140625 349.722656 Z M 27.460938 190.621094 "/></clipPath><clipPath id="2b250c1d7d"><path d="M 27.460938 190.621094 L 187.289062 152.765625 L 224.96875 311.867188 L 65.140625 349.722656 Z M 27.460938 190.621094 "/></clipPath><clipPath id="64ff79e68e"><path d="M 94 101 L 227 101 L 227 192 L 94 192 Z M 94 101 "/></clipPath><clipPath id="b850741600"><path d="M 97.492188 202.105469 L 78.277344 131.160156 L 223.0625 91.945312 L 242.277344 162.890625 Z M 97.492188 202.105469 "/></clipPath><clipPath id="ec72f3093f"><path d="M 97.492188 202.105469 L 78.277344 131.160156 L 223.0625 91.945312 L 242.277344 162.890625 Z M 97.492188 202.105469 "/></clipPath><clipPath id="4b4ee865c1"><path d="M 97.492188 202.105469 L 78.277344 131.160156 L 223.0625 91.945312 L 242.277344 162.890625 Z M 97.492188 202.105469 "/></clipPath><clipPath id="797722009f"><path d="M 225 37.5 L 322 37.5 L 322 147.75 L 225 147.75 Z M 225 37.5 "/></clipPath></defs><g id="df3daea7ff"><g clip-rule="nonzero" clip-path="url(#509f931ad0)"><g clip-rule="nonzero" clip-path="url(#f4a5e7ea60)"><g clip-rule="nonzero" clip-path="url(#e3f3515993)"><g clip-rule="nonzero" clip-path="url(#801850aa43)"><path style=" stroke:none;fill-rule:evenodd;fill:#9facba;fill-opacity:1;" d="M 121.445312 246.632812 C 110.949219 247.355469 101.109375 240.382812 98.609375 229.832031 L 91.589844 200.183594 C 87.828125 199.03125 84.761719 195.972656 83.789062 191.871094 C 82.332031 185.710938 86.144531 179.535156 92.308594 178.078125 C 98.472656 176.617188 104.648438 180.425781 106.109375 186.585938 C 107.078125 190.6875 105.710938 194.796875 102.867188 197.515625 L 109.890625 227.160156 C 110.90625 231.457031 114.535156 234.503906 118.699219 235.023438 Z M 121.445312 246.632812 "/></g></g></g></g><g clip-rule="nonzero" clip-path="url(#515a08fd59)"><g clip-rule="nonzero" clip-path="url(#1a5afbf292)"><g clip-rule="nonzero" clip-path="url(#acc2219f11)"><g clip-rule="nonzero" clip-path="url(#4e8f901c19)"><path style=" stroke:none;fill-rule:evenodd;fill:#8d9ca8;fill-opacity:1;" d="M 121.445312 246.632812 C 120.582031 246.695312 119.71875 246.699219 118.867188 246.65625 L 116.25 235.605469 C 112.085938 235.082031 108.457031 232.035156 107.441406 227.738281 L 100.417969 198.09375 C 103.261719 195.375 104.632812 191.265625 103.660156 187.164062 C 102.300781 181.417969 96.832031 177.71875 91.101562 178.433594 C 91.492188 178.296875 91.894531 178.175781 92.308594 178.078125 C 98.472656 176.617188 104.648438 180.425781 106.109375 186.585938 C 107.078125 190.6875 105.710938 194.796875 102.867188 197.515625 L 109.890625 227.160156 C 110.90625 231.457031 114.535156 234.503906 118.699219 235.023438 Z M 121.445312 246.632812 "/></g></g></g></g><g clip-rule="nonzero" clip-path="url(#a9cef24e74)"><g clip-rule="nonzero" clip-path="url(#bb633a659f)"><g clip-rule="nonzero" clip-path="url(#423fe80f0e)"><g clip-rule="nonzero" clip-path="url(#58c0c24322)"><path style=" stroke:none;fill-rule:evenodd;fill:#ffe177;fill-opacity:1;" d="M 52.160156 239.957031 L 187.339844 207.9375 C 192.699219 206.667969 198.125 210.011719 199.390625 215.367188 L 219.445312 300.042969 C 220.714844 305.398438 217.367188 310.816406 212.007812 312.085938 L 76.824219 344.105469 C 71.464844 345.375 66.042969 342.03125 64.773438 336.675781 L 44.71875 252 C 43.449219 246.644531 46.796875 241.226562 52.160156 239.957031 Z M 52.160156 239.957031 "/></g></g></g></g><g clip-rule="nonzero" clip-path="url(#bbae969cac)"><g clip-rule="nonzero" clip-path="url(#1d88babf13)"><g clip-rule="nonzero" clip-path="url(#4876a1a78c)"><g clip-rule="nonzero" clip-path="url(#81a7eb1222)"><path style=" stroke:none;fill-rule:evenodd;fill:#ffd064;fill-opacity:1;" d="M 179.765625 209.730469 L 187.339844 207.9375 C 192.699219 206.667969 198.125 210.011719 199.390625 215.367188 L 219.445312 300.042969 C 220.714844 305.398438 217.367188 310.816406 212.007812 312.085938 L 204.433594 313.882812 C 209.796875 312.613281 213.144531 307.191406 211.875 301.835938 L 191.820312 217.160156 C 190.550781 211.804688 185.128906 208.460938 179.765625 209.730469 Z M 179.765625 209.730469 "/></g></g></g></g><g clip-rule="nonzero" clip-path="url(#9782255c0c)"><g clip-rule="nonzero" clip-path="url(#d6b82eef8b)"><g clip-rule="nonzero" clip-path="url(#3e037ce40b)"><g clip-rule="nonzero" clip-path="url(#6978adcdde)"><path style=" stroke:none;fill-rule:evenodd;fill:#ffc338;fill-opacity:1;" d="M 217.953125 307.996094 C 216.59375 309.984375 214.523438 311.492188 212.007812 312.085938 L 76.824219 344.105469 C 74.3125 344.699219 71.785156 344.28125 69.675781 343.113281 L 129.867188 266.667969 Z M 217.953125 307.996094 "/></g></g></g></g><g clip-rule="nonzero" clip-path="url(#e1133f751d)"><g clip-rule="nonzero" clip-path="url(#64752e0c63)"><g clip-rule="nonzero" clip-path="url(#62a5cdf176)"><g clip-rule="nonzero" clip-path="url(#b5060b8405)"><path style=" stroke:none;fill-rule:evenodd;fill:#f5b829;fill-opacity:1;" d="M 217.953125 307.996094 C 216.59375 309.984375 214.523438 311.492188 212.007812 312.085938 L 204.433594 313.882812 C 208.648438 312.882812 211.617188 309.320312 212.078125 305.238281 Z M 217.953125 307.996094 "/></g></g></g></g><g clip-rule="nonzero" clip-path="url(#7b4be5b08e)"><g clip-rule="nonzero" clip-path="url(#a945ddefc3)"><g clip-rule="nonzero" clip-path="url(#15924fd3fc)"><g clip-rule="nonzero" clip-path="url(#8f13d24a75)"><path style=" stroke:none;fill-rule:evenodd;fill:#ffd064;fill-opacity:1;" d="M 52.160156 239.957031 L 187.339844 207.9375 C 189.929688 207.324219 192.53125 207.789062 194.675781 209.03125 L 139.835938 286.421875 C 137.554688 289.636719 133.300781 290.644531 129.820312 288.792969 L 46.09375 244.222656 C 47.453125 242.148438 49.570312 240.570312 52.160156 239.957031 Z M 52.160156 239.957031 "/></g></g></g></g><g clip-rule="nonzero" clip-path="url(#a4775e4869)"><g clip-rule="nonzero" clip-path="url(#f505a71d29)"><g clip-rule="nonzero" clip-path="url(#b606b30365)"><g clip-rule="nonzero" clip-path="url(#44c4d7532d)"><path style=" stroke:none;fill-rule:evenodd;fill:#ffc338;fill-opacity:1;" d="M 179.765625 209.730469 L 187.339844 207.9375 C 189.929688 207.324219 192.53125 207.789062 194.675781 209.03125 L 190.78125 214.527344 C 188.636719 210.769531 184.179688 208.6875 179.765625 209.730469 Z M 179.765625 209.730469 "/></g></g></g></g><g clip-rule="nonzero" clip-path="url(#f1853976d7)"><g clip-rule="nonzero" clip-path="url(#e6dd6fe5b5)"><g clip-rule="nonzero" clip-path="url(#d1a0d38d30)"><g clip-rule="nonzero" clip-path="url(#9b1941ec1a)"><path style=" stroke:none;fill-rule:evenodd;fill:#9facba;fill-opacity:1;" d="M 143.570312 229.382812 C 146.347656 241.121094 139.027344 252.972656 127.285156 255.757812 L 124.613281 244.488281 C 130.132812 243.179688 133.597656 237.570312 132.292969 232.054688 L 131.457031 228.535156 L 124.695312 230.136719 C 124.457031 230.195312 124.222656 230.121094 124.054688 229.941406 C 123.890625 229.761719 123.835938 229.523438 123.910156 229.289062 L 134.5 196.4375 C 134.59375 196.148438 134.855469 195.964844 135.160156 195.976562 C 135.460938 195.988281 135.707031 196.195312 135.777344 196.488281 C 138.375 207.453125 140.972656 218.417969 143.570312 229.382812 Z M 143.570312 229.382812 "/></g></g></g></g><g clip-rule="nonzero" clip-path="url(#daca1e68b8)"><g clip-rule="nonzero" clip-path="url(#c6f9ace71e)"><g clip-rule="nonzero" clip-path="url(#a81a5abf69)"><g clip-rule="nonzero" clip-path="url(#f97da44749)"><path style=" stroke:none;fill-rule:evenodd;fill:#8d9ca8;fill-opacity:1;" d="M 143.570312 229.382812 C 146.347656 241.121094 139.027344 252.972656 127.285156 255.757812 L 127.25 255.613281 C 137.5625 251.882812 143.707031 240.875 141.121094 229.964844 L 133.742188 198.796875 L 134.5 196.4375 C 134.59375 196.148438 134.855469 195.964844 135.160156 195.976562 C 135.460938 195.988281 135.707031 196.195312 135.777344 196.488281 C 138.375 207.453125 140.972656 218.417969 143.570312 229.382812 Z M 143.570312 229.382812 "/></g></g></g></g><g clip-rule="nonzero" clip-path="url(#35d4b7a42f)"><g clip-rule="nonzero" clip-path="url(#855d761a0a)"><g clip-rule="nonzero" clip-path="url(#e85379a7b7)"><g clip-rule="nonzero" clip-path="url(#2b250c1d7d)"><path style=" stroke:none;fill-rule:evenodd;fill:#000000;fill-opacity:1;" d="M 211.40625 309.507812 C 212.089844 309.347656 212.75 309.085938 213.324219 308.75 L 148.738281 278.441406 L 138.042969 293.539062 C 137.660156 294.085938 137.089844 294.445312 136.480469 294.589844 C 135.875 294.734375 135.214844 294.664062 134.628906 294.347656 L 118.296875 285.652344 L 74.152344 341.714844 C 74.832031 341.75 75.523438 341.691406 76.222656 341.527344 Z M 113.550781 283.121094 L 69.195312 339.449219 C 68.320312 338.53125 67.664062 337.382812 67.351562 336.066406 L 47.296875 251.390625 C 47.011719 250.195312 47.050781 248.996094 47.332031 247.882812 Z M 52.773438 242.527344 L 122.164062 226.09375 L 121.039062 229.59375 C 120.742188 230.503906 120.960938 231.503906 121.609375 232.203125 C 122.257812 232.90625 123.238281 233.199219 124.164062 232.980469 L 129.488281 231.71875 L 129.710938 232.667969 C 130.472656 235.882812 129.089844 239.113281 126.472656 240.84375 L 126.402344 240.535156 C 126.066406 239.113281 124.636719 238.230469 123.210938 238.570312 C 121.789062 238.90625 120.90625 240.335938 121.246094 241.757812 L 125.496094 259.707031 C 125.832031 261.128906 127.257812 262.007812 128.683594 261.671875 C 130.109375 261.332031 130.988281 259.90625 130.652344 258.484375 L 130.4375 257.582031 C 142.117188 253.453125 149.066406 241.074219 146.152344 228.773438 L 144.277344 220.855469 L 187.960938 210.511719 C 188.808594 210.308594 189.664062 210.265625 190.488281 210.363281 L 135.058594 288.582031 L 50.433594 243.535156 C 51.140625 243.074219 51.925781 242.730469 52.773438 242.527344 Z M 94.179688 199.570312 L 100.390625 225.808594 L 106.503906 224.363281 L 100.289062 198.125 C 100.074219 197.207031 100.359375 196.25 101.039062 195.601562 C 103.296875 193.441406 104.25 190.222656 103.53125 187.195312 C 102.410156 182.464844 97.648438 179.53125 92.917969 180.652344 C 88.183594 181.773438 85.257812 186.527344 86.378906 191.257812 C 87.09375 194.285156 89.390625 196.738281 92.378906 197.652344 C 93.277344 197.929688 93.960938 198.65625 94.179688 199.570312 Z M 127.523438 226.746094 L 130.847656 225.957031 C 132.273438 225.621094 133.699219 226.503906 134.035156 227.921875 L 134.867188 231.445312 C 136.308594 237.523438 133.191406 243.636719 127.742188 246.1875 L 129.207031 252.386719 C 138.039062 248.964844 143.238281 239.453125 140.996094 229.996094 L 134.84375 204.019531 Z M 195.210938 212.855469 C 195.976562 213.722656 196.53125 214.78125 196.816406 215.976562 L 216.871094 300.652344 C 217.179688 301.96875 217.109375 303.292969 216.742188 304.5 L 151.847656 274.050781 Z M 201.972656 214.757812 L 222.027344 299.429688 C 223.632812 306.21875 219.421875 313.050781 212.625 314.660156 L 77.441406 346.679688 C 70.648438 348.289062 63.800781 344.074219 62.195312 337.289062 L 42.140625 252.613281 C 40.53125 245.824219 44.757812 238.984375 51.554688 237.375 L 95.234375 227.03125 L 89.347656 202.167969 C 85.292969 200.410156 82.25 196.8125 81.222656 192.480469 C 79.429688 184.910156 84.128906 177.292969 91.695312 175.503906 C 99.28125 173.707031 106.894531 178.402344 108.6875 185.972656 C 109.714844 190.3125 108.605469 194.890625 105.773438 198.277344 L 111.660156 223.140625 L 124.066406 220.203125 L 132.71875 193.359375 C 133.078125 192.230469 134.148438 191.484375 135.34375 191.527344 C 136.527344 191.574219 137.539062 192.40625 137.8125 193.566406 L 143.058594 215.703125 L 186.738281 205.359375 C 193.535156 203.75 200.363281 207.964844 201.972656 214.757812 Z M 91.335938 190.082031 C 90.867188 188.09375 92.105469 186.085938 94.09375 185.617188 C 96.09375 185.140625 98.101562 186.378906 98.574219 188.371094 C 99.042969 190.355469 97.804688 192.363281 95.800781 192.839844 C 93.816406 193.308594 91.808594 192.070312 91.335938 190.082031 Z M 91.335938 190.082031 "/></g></g></g></g><g clip-rule="nonzero" clip-path="url(#64ff79e68e)"><g clip-rule="nonzero" clip-path="url(#b850741600)"><g clip-rule="nonzero" clip-path="url(#ec72f3093f)"><g clip-rule="nonzero" clip-path="url(#4b4ee865c1)"><path style=" stroke:none;fill-rule:nonzero;fill:#000000;fill-opacity:1;" d="M 225.671875 104.695312 C 212.898438 100.355469 198.058594 98.890625 185.746094 105.597656 C 180.589844 108.367188 176.03125 112.550781 173.097656 117.671875 C 169.871094 123.289062 169.113281 129.820312 169.804688 136.273438 C 170.605469 143.121094 172.835938 149.792969 174.519531 156.398438 C 175.988281 162.222656 178.011719 169.6875 174.316406 175.117188 C 172.203125 178.21875 168.433594 179.871094 164.980469 181.125 C 161.425781 182.402344 157.613281 183.121094 153.765625 183.316406 C 146 183.839844 138.199219 182.683594 130.542969 181.277344 C 126.332031 180.519531 122.09375 179.664062 117.910156 179.007812 C 113.851562 178.417969 109.640625 177.664062 105.621094 178.011719 C 102.097656 178.230469 98.515625 179.410156 96.324219 182.21875 C 94.347656 184.652344 93.644531 187.898438 95.058594 190.785156 C 95.496094 191.613281 96.761719 190.847656 96.328125 190.019531 C 94.886719 187.035156 96.570312 183.519531 99.027344 181.695312 C 101.925781 179.539062 105.871094 179.316406 109.304688 179.546875 C 116.792969 179.941406 124.234375 181.722656 131.542969 183.011719 C 138.75 184.328125 146.101562 185.394531 153.351562 184.90625 C 159.984375 184.480469 167.484375 182.976562 172.785156 178.800781 C 177.671875 175.050781 178.371094 169.0625 177.539062 163.277344 C 176.597656 156.679688 174.351562 150.332031 172.71875 143.917969 C 171.1875 137.480469 170.164062 130.589844 171.988281 124.085938 C 173.578125 118.277344 177.378906 113.242188 182.195312 109.617188 C 194.628906 100.242188 211.164062 101.351562 225.203125 106.085938 C 226.148438 106.464844 226.617188 105.074219 225.671875 104.695312 Z M 225.671875 104.695312 "/></g></g></g></g><path style=" stroke:none;fill-rule:evenodd;fill:#ff4b07;fill-opacity:1;" d="M 268.550781 142.496094 L 278.609375 142.496094 C 281.429688 142.496094 283.6875 140.246094 283.6875 137.492188 C 283.6875 137.492188 283.6875 136.25 283.6875 136.25 C 288.738281 133.015625 292.074219 127.4375 292.074219 121.089844 C 292.074219 110.410156 282.648438 101.867188 271.484375 103.074219 C 262.921875 104 256.015625 110.882812 255.179688 119.269531 C 254.46875 126.363281 257.945312 132.710938 263.472656 136.25 C 263.472656 136.25 263.472656 137.492188 263.472656 137.492188 C 263.472656 140.246094 265.734375 142.496094 268.550781 142.496094 Z M 278.65625 139.050781 C 279.527344 139.027344 280.242188 138.347656 280.242188 137.492188 L 280.242188 135.28125 C 280.242188 134.65625 280.578125 134.085938 281.117188 133.78125 C 285.597656 131.242188 288.628906 126.519531 288.628906 121.089844 C 288.628906 112.410156 280.925781 105.519531 271.855469 106.5 C 264.910156 107.25 259.285156 112.8125 258.609375 119.613281 C 258.003906 125.652344 261.164062 131.015625 266.042969 133.78125 C 266.582031 134.085938 266.917969 134.660156 266.917969 135.28125 C 266.917969 135.28125 266.917969 137.492188 266.917969 137.492188 C 266.917969 138.347656 267.632812 139.027344 268.503906 139.050781 L 268.503906 135.851562 C 268.503906 134.902344 269.277344 134.128906 270.226562 134.128906 C 271.179688 134.128906 271.949219 134.902344 271.949219 135.851562 L 271.949219 139.050781 L 275.210938 139.050781 L 275.210938 135.851562 C 275.210938 134.902344 275.984375 134.128906 276.933594 134.128906 C 277.886719 134.128906 278.65625 134.902344 278.65625 135.851562 Z M 266.875 127.730469 C 269.675781 127.730469 271.949219 125.457031 271.949219 122.65625 L 271.949219 119.519531 C 271.949219 116.714844 269.675781 114.441406 266.875 114.441406 C 264.070312 114.441406 261.796875 116.714844 261.796875 119.519531 L 261.796875 122.65625 C 261.796875 125.457031 264.070312 127.730469 266.875 127.730469 Z M 280.289062 127.730469 C 283.09375 127.730469 285.367188 125.457031 285.367188 122.65625 C 285.367188 122.65625 285.367188 119.519531 285.367188 119.519531 C 285.367188 116.714844 283.09375 114.441406 280.289062 114.441406 C 277.488281 114.441406 275.210938 116.714844 275.210938 119.519531 C 275.210938 119.519531 275.210938 122.65625 275.210938 122.65625 C 275.210938 125.457031 277.488281 127.730469 280.289062 127.730469 Z M 266.875 124.285156 C 265.972656 124.285156 265.242188 123.554688 265.242188 122.65625 C 265.242188 122.65625 265.242188 119.519531 265.242188 119.519531 C 265.242188 118.621094 265.972656 117.886719 266.875 117.886719 C 267.773438 117.886719 268.503906 118.621094 268.503906 119.519531 C 268.503906 119.519531 268.503906 122.65625 268.503906 122.65625 C 268.503906 123.554688 267.773438 124.285156 266.875 124.285156 Z M 280.289062 124.285156 C 279.386719 124.285156 278.65625 123.554688 278.65625 122.65625 L 278.65625 119.519531 C 278.65625 118.621094 279.386719 117.890625 280.289062 117.890625 C 281.191406 117.890625 281.921875 118.621094 281.921875 119.519531 L 281.921875 122.65625 C 281.921875 123.554688 281.191406 124.285156 280.289062 124.285156 Z M 280.289062 124.285156 "/><g clip-rule="nonzero" clip-path="url(#797722009f)"><path style=" stroke:none;fill-rule:evenodd;fill:#000000;fill-opacity:1;" d="M 316.726562 100.886719 C 317.953125 102.035156 318.613281 103.769531 318.289062 105.59375 L 312.199219 140.046875 C 311.765625 142.507812 309.648438 144.304688 307.167969 144.304688 L 239.992188 144.304688 C 237.515625 144.304688 235.398438 142.507812 234.960938 140.046875 L 228.875 105.59375 C 228.550781 103.75 229.222656 101.996094 230.476562 100.851562 C 231.175781 100.207031 231.222656 99.117188 230.582031 98.417969 C 229.9375 97.714844 228.847656 97.667969 228.148438 98.3125 C 226.070312 100.21875 224.941406 103.132812 225.480469 106.191406 C 225.480469 106.191406 231.570312 140.644531 231.570312 140.644531 C 232.296875 144.757812 235.851562 147.75 239.992188 147.75 C 239.992188 147.75 307.167969 147.75 307.167969 147.75 C 311.316406 147.75 314.867188 144.757812 315.59375 140.644531 C 315.59375 140.644531 321.679688 106.191406 321.679688 106.191406 C 322.21875 103.164062 321.117188 100.277344 319.078125 98.371094 C 318.386719 97.71875 317.296875 97.757812 316.644531 98.449219 C 315.996094 99.144531 316.03125 100.234375 316.726562 100.886719 Z M 247.128906 90.65625 C 244.550781 92.261719 242.425781 94.085938 240.859375 96.070312 L 235.683594 96.070312 C 234.730469 96.070312 233.960938 96.84375 233.960938 97.792969 C 233.960938 98.742188 234.730469 99.515625 235.683594 99.515625 L 311.035156 99.515625 C 311.984375 99.515625 312.757812 98.742188 312.757812 97.792969 C 312.757812 96.84375 311.984375 96.070312 311.035156 96.070312 L 306.300781 96.070312 C 304.738281 94.085938 302.613281 92.257812 300.035156 90.65625 L 308.585938 79.253906 C 315.210938 70.425781 312.914062 57.824219 303.601562 51.898438 L 287.210938 41.46875 C 283.136719 38.875 278.40625 37.5 273.582031 37.5 C 268.753906 37.5 264.027344 38.875 259.953125 41.46875 L 243.5625 51.898438 C 234.25 57.824219 231.953125 70.425781 238.574219 79.253906 Z M 301.609375 96.070312 L 245.554688 96.070312 C 251.269531 90.847656 261.703125 87.457031 273.582031 87.457031 C 285.460938 87.457031 295.894531 90.847656 301.613281 96.070312 Z M 293.867188 62.789062 C 294.121094 64.082031 294.253906 65.417969 294.253906 66.785156 C 294.253906 74.535156 289.980469 81.296875 283.660156 84.832031 C 288.648438 85.667969 293.175781 87.105469 296.992188 88.976562 C 297.015625 88.945312 297.035156 88.914062 297.058594 88.882812 C 297.058594 88.882812 305.832031 77.1875 305.832031 77.1875 C 307.089844 75.507812 307.953125 73.664062 308.445312 71.757812 C 303.582031 67.984375 298.726562 64.992188 293.867188 62.789062 Z M 253.296875 62.789062 C 248.4375 64.992188 243.578125 67.984375 238.714844 71.757812 C 239.207031 73.664062 240.070312 75.507812 241.332031 77.1875 L 250.171875 88.976562 C 253.988281 87.101562 258.515625 85.667969 263.5 84.835938 C 257.183594 81.296875 252.910156 74.535156 252.910156 66.785156 C 252.910156 65.417969 253.042969 64.082031 253.296875 62.789062 Z M 290.378906 70.613281 C 279.183594 74.691406 267.976562 74.691406 256.78125 70.613281 C 258.523438 78.28125 265.390625 84.011719 273.582031 84.011719 C 281.773438 84.011719 288.636719 78.28125 290.378906 70.613281 Z M 308.933594 67.804688 C 308.898438 62.730469 306.390625 57.757812 301.75 54.804688 L 285.359375 44.375 C 281.839844 42.136719 277.753906 40.945312 273.582031 40.945312 C 269.410156 40.945312 265.320312 42.136719 261.800781 44.375 C 261.800781 44.375 245.414062 54.804688 245.414062 54.804688 C 240.773438 57.757812 238.261719 62.730469 238.230469 67.804688 C 250.015625 59.0625 261.8125 54.730469 273.59375 54.734375 C 285.367188 54.738281 297.152344 59.070312 308.933594 67.804688 Z M 289.863281 61.152344 C 284.441406 59.175781 279.019531 58.183594 273.59375 58.179688 C 268.160156 58.179688 262.726562 59.171875 257.296875 61.152344 C 257.105469 61.707031 256.941406 62.273438 256.804688 62.851562 C 267.988281 66.890625 279.171875 66.890625 290.355469 62.851562 C 290.21875 62.273438 290.058594 61.707031 289.863281 61.152344 Z M 289.863281 61.152344 "/></g></g></svg>