<svg xmlns="http://www.w3.org/2000/svg" xmlns:xlink="http://www.w3.org/1999/xlink" width="500" zoomAndPan="magnify" viewBox="0 0 375 374.999991" height="500" preserveAspectRatio="xMidYMid meet" version="1.2"><defs><clipPath id="17b87c5e28"><path d="M 0 0 L 87 0 L 87 47 L 0 47 Z M 0 0 "/></clipPath><clipPath id="3f57434a56"><path d="M 99.613281 32.925781 L -10.492188 46.972656 L -24.539062 -63.136719 L 85.570312 -77.179688 Z M 99.613281 32.925781 "/></clipPath><clipPath id="cd9ce84e34"><path d="M 99.613281 32.925781 L -10.492188 46.972656 L -24.539062 -63.136719 L 85.570312 -77.179688 Z M 99.613281 32.925781 "/></clipPath><clipPath id="f478431490"><path d="M 327 182 L 375 182 L 375 307 L 327 307 Z M 327 182 "/></clipPath><clipPath id="c6fad8206b"><path d="M 470.8125 264.382812 L 374.71875 319.941406 L 319.160156 223.84375 L 415.257812 168.285156 Z M 470.8125 264.382812 "/></clipPath><clipPath id="9e31e96697"><path d="M 470.8125 264.382812 L 374.71875 319.941406 L 319.160156 223.84375 L 415.257812 168.285156 Z M 470.8125 264.382812 "/></clipPath><clipPath id="6ba449e367"><path d="M 83 177 L 122 177 L 122 247 L 83 247 Z M 83 177 "/></clipPath><clipPath id="f69b9a2f27"><path d="M 27.460938 190.621094 L 187.289062 152.765625 L 224.96875 311.867188 L 65.140625 349.722656 Z M 27.460938 190.621094 "/></clipPath><clipPath id="d3f7b5d144"><path d="M 27.460938 190.621094 L 187.289062 152.765625 L 224.96875 311.867188 L 65.140625 349.722656 Z M 27.460938 190.621094 "/></clipPath><clipPath id="20604eb1ab"><path d="M 27.460938 190.621094 L 187.289062 152.765625 L 224.96875 311.867188 L 65.140625 349.722656 Z M 27.460938 190.621094 "/></clipPath><clipPath id="4c534370f4"><path d="M 91 177 L 122 177 L 122 247 L 91 247 Z M 91 177 "/></clipPath><clipPath id="73b60a60e2"><path d="M 27.460938 190.621094 L 187.289062 152.765625 L 224.96875 311.867188 L 65.140625 349.722656 Z M 27.460938 190.621094 "/></clipPath><clipPath id="0e2468605f"><path d="M 27.460938 190.621094 L 187.289062 152.765625 L 224.96875 311.867188 L 65.140625 349.722656 Z M 27.460938 190.621094 "/></clipPath><clipPath id="164357c92a"><path d="M 27.460938 190.621094 L 187.289062 152.765625 L 224.96875 311.867188 L 65.140625 349.722656 Z M 27.460938 190.621094 "/></clipPath><clipPath id="4ed52049fb"><path d="M 44 207 L 220 207 L 220 345 L 44 345 Z M 44 207 "/></clipPath><clipPath id="d003261906"><path d="M 27.460938 190.621094 L 187.289062 152.765625 L 224.96875 311.867188 L 65.140625 349.722656 Z M 27.460938 190.621094 "/></clipPath><clipPath id="f15cf5ad42"><path d="M 27.460938 190.621094 L 187.289062 152.765625 L 224.96875 311.867188 L 65.140625 349.722656 Z M 27.460938 190.621094 "/></clipPath><clipPath id="7b06e5e51f"><path d="M 27.460938 190.621094 L 187.289062 152.765625 L 224.96875 311.867188 L 65.140625 349.722656 Z M 27.460938 190.621094 "/></clipPath><clipPath id="e65144d575"><path d="M 179 207 L 220 207 L 220 314 L 179 314 Z M 179 207 "/></clipPath><clipPath id="52627e25a8"><path d="M 27.460938 190.621094 L 187.289062 152.765625 L 224.96875 311.867188 L 65.140625 349.722656 Z M 27.460938 190.621094 "/></clipPath><clipPath id="0b62b9877b"><path d="M 27.460938 190.621094 L 187.289062 152.765625 L 224.96875 311.867188 L 65.140625 349.722656 Z M 27.460938 190.621094 "/></clipPath><clipPath id="4a4b089a6b"><path d="M 27.460938 190.621094 L 187.289062 152.765625 L 224.96875 311.867188 L 65.140625 349.722656 Z M 27.460938 190.621094 "/></clipPath><clipPath id="b000189db3"><path d="M 69 266 L 218 266 L 218 345 L 69 345 Z M 69 266 "/></clipPath><clipPath id="e75534776d"><path d="M 27.460938 190.621094 L 187.289062 152.765625 L 224.96875 311.867188 L 65.140625 349.722656 Z M 27.460938 190.621094 "/></clipPath><clipPath id="31bdde5843"><path d="M 27.460938 190.621094 L 187.289062 152.765625 L 224.96875 311.867188 L 65.140625 349.722656 Z M 27.460938 190.621094 "/></clipPath><clipPath id="bf4e9d6f0b"><path d="M 27.460938 190.621094 L 187.289062 152.765625 L 224.96875 311.867188 L 65.140625 349.722656 Z M 27.460938 190.621094 "/></clipPath><clipPath id="6e7e2e40af"><path d="M 204 305 L 218 305 L 218 314 L 204 314 Z M 204 305 "/></clipPath><clipPath id="1617ecc207"><path d="M 27.460938 190.621094 L 187.289062 152.765625 L 224.96875 311.867188 L 65.140625 349.722656 Z M 27.460938 190.621094 "/></clipPath><clipPath id="4ffd721bc1"><path d="M 27.460938 190.621094 L 187.289062 152.765625 L 224.96875 311.867188 L 65.140625 349.722656 Z M 27.460938 190.621094 "/></clipPath><clipPath id="bd24c923d8"><path d="M 27.460938 190.621094 L 187.289062 152.765625 L 224.96875 311.867188 L 65.140625 349.722656 Z M 27.460938 190.621094 "/></clipPath><clipPath id="de21f96d2d"><path d="M 46 207 L 195 207 L 195 290 L 46 290 Z M 46 207 "/></clipPath><clipPath id="2e0c059355"><path d="M 27.460938 190.621094 L 187.289062 152.765625 L 224.96875 311.867188 L 65.140625 349.722656 Z M 27.460938 190.621094 "/></clipPath><clipPath id="aa833c1593"><path d="M 27.460938 190.621094 L 187.289062 152.765625 L 224.96875 311.867188 L 65.140625 349.722656 Z M 27.460938 190.621094 "/></clipPath><clipPath id="a35b84936e"><path d="M 27.460938 190.621094 L 187.289062 152.765625 L 224.96875 311.867188 L 65.140625 349.722656 Z M 27.460938 190.621094 "/></clipPath><clipPath id="c7f24ab5af"><path d="M 179 207 L 195 207 L 195 215 L 179 215 Z M 179 207 "/></clipPath><clipPath id="890140fccb"><path d="M 27.460938 190.621094 L 187.289062 152.765625 L 224.96875 311.867188 L 65.140625 349.722656 Z M 27.460938 190.621094 "/></clipPath><clipPath id="39b78a5a95"><path d="M 27.460938 190.621094 L 187.289062 152.765625 L 224.96875 311.867188 L 65.140625 349.722656 Z M 27.460938 190.621094 "/></clipPath><clipPath id="30598a7dd8"><path d="M 27.460938 190.621094 L 187.289062 152.765625 L 224.96875 311.867188 L 65.140625 349.722656 Z M 27.460938 190.621094 "/></clipPath><clipPath id="a1e1e97bab"><path d="M 123 195 L 145 195 L 145 256 L 123 256 Z M 123 195 "/></clipPath><clipPath id="2c47d1d084"><path d="M 27.460938 190.621094 L 187.289062 152.765625 L 224.96875 311.867188 L 65.140625 349.722656 Z M 27.460938 190.621094 "/></clipPath><clipPath id="dec5f74f4b"><path d="M 27.460938 190.621094 L 187.289062 152.765625 L 224.96875 311.867188 L 65.140625 349.722656 Z M 27.460938 190.621094 "/></clipPath><clipPath id="6fe4a14a2a"><path d="M 27.460938 190.621094 L 187.289062 152.765625 L 224.96875 311.867188 L 65.140625 349.722656 Z M 27.460938 190.621094 "/></clipPath><clipPath id="ad45a55f23"><path d="M 127 195 L 145 195 L 145 256 L 127 256 Z M 127 195 "/></clipPath><clipPath id="28cbcba0b4"><path d="M 27.460938 190.621094 L 187.289062 152.765625 L 224.96875 311.867188 L 65.140625 349.722656 Z M 27.460938 190.621094 "/></clipPath><clipPath id="b647fc3c9b"><path d="M 27.460938 190.621094 L 187.289062 152.765625 L 224.96875 311.867188 L 65.140625 349.722656 Z M 27.460938 190.621094 "/></clipPath><clipPath id="ec182deb1d"><path d="M 27.460938 190.621094 L 187.289062 152.765625 L 224.96875 311.867188 L 65.140625 349.722656 Z M 27.460938 190.621094 "/></clipPath><clipPath id="0bbf58d251"><path d="M 41 175 L 223 175 L 223 348 L 41 348 Z M 41 175 "/></clipPath><clipPath id="ef6913447a"><path d="M 27.460938 190.621094 L 187.289062 152.765625 L 224.96875 311.867188 L 65.140625 349.722656 Z M 27.460938 190.621094 "/></clipPath><clipPath id="dee6fbe300"><path d="M 27.460938 190.621094 L 187.289062 152.765625 L 224.96875 311.867188 L 65.140625 349.722656 Z M 27.460938 190.621094 "/></clipPath><clipPath id="2c18acebd6"><path d="M 27.460938 190.621094 L 187.289062 152.765625 L 224.96875 311.867188 L 65.140625 349.722656 Z M 27.460938 190.621094 "/></clipPath><clipPath id="4d2bd06244"><path d="M 94 101 L 227 101 L 227 192 L 94 192 Z M 94 101 "/></clipPath><clipPath id="7c3370789b"><path d="M 97.492188 202.105469 L 78.277344 131.160156 L 223.0625 91.945312 L 242.277344 162.890625 Z M 97.492188 202.105469 "/></clipPath><clipPath id="79180ede1d"><path d="M 97.492188 202.105469 L 78.277344 131.160156 L 223.0625 91.945312 L 242.277344 162.890625 Z M 97.492188 202.105469 "/></clipPath><clipPath id="95b9801751"><path d="M 97.492188 202.105469 L 78.277344 131.160156 L 223.0625 91.945312 L 242.277344 162.890625 Z M 97.492188 202.105469 "/></clipPath><clipPath id="c462543efc"><path d="M 225 37.5 L 322 37.5 L 322 147.75 L 225 147.75 Z M 225 37.5 "/></clipPath></defs><g id="3ac814e436"><g clip-rule="nonzero" clip-path="url(#17b87c5e28)"><g clip-rule="nonzero" clip-path="url(#3f57434a56)"><g clip-rule="nonzero" clip-path="url(#cd9ce84e34)"><path style=" stroke:none;fill-rule:evenodd;fill:#ffffff;fill-opacity:1;" d="M 37.480469 -68.507812 C 37.617188 -67.082031 37.679688 -65.65625 37.667969 -64.222656 C 37.625 -62.652344 37.316406 -62.613281 37.210938 -61.328125 C 36.859375 -57.800781 36.382812 -54.167969 35.277344 -50.609375 C 34.167969 -47.050781 32.132812 -44.089844 30.710938 -40.695312 C 28.808594 -36.1875 27.585938 -31.433594 25.222656 -27.199219 C 24.765625 -26.335938 24.246094 -25.511719 23.664062 -24.726562 C 21.207031 -21.574219 17.824219 -19.558594 15.058594 -16.90625 C 14.363281 -16.238281 13.808594 -15.496094 13.1875 -14.769531 C 11.671875 -13.011719 10.328125 -11.28125 8.71875 -9.734375 C 7.453125 -8.613281 6.359375 -7.378906 5.0625 -6.367188 C 3.128906 -4.867188 0.996094 -3.746094 -1.140625 -2.648438 C -4.472656 -0.929688 -8.003906 0.257812 -11.992188 0.5 C -12.34375 0.546875 -12.667969 0.65625 -12.972656 0.832031 C -13.28125 1.007812 -13.539062 1.238281 -13.753906 1.515625 C -13.96875 1.796875 -14.121094 2.105469 -14.210938 2.445312 C -14.304688 2.785156 -14.328125 3.132812 -14.28125 3.480469 C -14.234375 3.832031 -14.121094 4.15625 -13.945312 4.464844 C -13.769531 4.769531 -13.542969 5.027344 -13.261719 5.242188 C -12.984375 5.457031 -12.671875 5.609375 -12.332031 5.703125 C -11.992188 5.792969 -11.648438 5.816406 -11.296875 5.769531 C -8.65625 5.214844 -6.136719 4.320312 -3.734375 3.085938 C -0.0664062 1.210938 3.046875 -1.507812 6.570312 -3.8125 C 8.011719 -4.753906 9.578125 -5.421875 11.132812 -6.203125 C 13.566406 -7.324219 15.882812 -8.644531 18.085938 -10.171875 C 18.710938 -10.574219 19.300781 -11.027344 19.851562 -11.535156 C 20.070312 -11.769531 20.269531 -12.015625 20.449219 -12.28125 C 22.980469 -15.550781 24.707031 -19.34375 27.058594 -22.96875 C 29.859375 -27.257812 33.308594 -31.203125 35.804688 -35.785156 C 36.191406 -36.464844 36.542969 -37.164062 36.855469 -37.882812 C 37.136719 -38.617188 37.375 -39.359375 37.574219 -40.117188 C 38.59375 -43.664062 39.101562 -47.234375 39.8125 -50.765625 C 40.519531 -54.292969 41.335938 -57.546875 41.714844 -60.875 C 41.898438 -62.238281 42.183594 -62.277344 42.324219 -63.96875 C 42.417969 -65.578125 42.429688 -67.183594 42.355469 -68.796875 C 42.320312 -69.105469 42.226562 -69.398438 42.078125 -69.675781 C 41.929688 -69.949219 41.738281 -70.1875 41.496094 -70.390625 C 41.257812 -70.59375 40.992188 -70.742188 40.695312 -70.839844 C 40.398438 -70.941406 40.09375 -70.980469 39.78125 -70.964844 C 39.46875 -70.949219 39.167969 -70.875 38.886719 -70.742188 C 38.601562 -70.613281 38.351562 -70.433594 38.132812 -70.207031 C 37.917969 -69.980469 37.753906 -69.722656 37.632812 -69.433594 C 37.515625 -69.140625 37.457031 -68.839844 37.457031 -68.527344 Z M 28.539062 -67.1875 C 27.890625 -62.304688 27.339844 -57.34375 25.785156 -52.726562 C 24.734375 -49.578125 22.773438 -46.917969 21.546875 -43.925781 C 20.324219 -40.933594 19.585938 -37.246094 18.101562 -34.175781 C 17.5 -32.9375 16.90625 -31.65625 16.058594 -30.585938 C 14.042969 -28.03125 10.984375 -26.792969 8.628906 -24.59375 C 6.277344 -22.394531 4.890625 -19.964844 2.46875 -17.933594 C 1.671875 -17.34375 0.949219 -16.714844 0.183594 -16.238281 C -1.777344 -15.003906 -3.753906 -14.195312 -5.652344 -13.347656 C -8.394531 -12.148438 -11.242188 -11.285156 -14.1875 -10.765625 C -14.550781 -10.691406 -14.882812 -10.550781 -15.183594 -10.335938 C -15.484375 -10.125 -15.730469 -9.863281 -15.925781 -9.550781 C -16.117188 -9.234375 -16.238281 -8.898438 -16.292969 -8.53125 C -16.34375 -8.167969 -16.320312 -7.808594 -16.222656 -7.453125 C -16.125 -7.097656 -15.960938 -6.777344 -15.726562 -6.488281 C -15.496094 -6.203125 -15.21875 -5.972656 -14.890625 -5.804688 C -14.5625 -5.632812 -14.21875 -5.535156 -13.847656 -5.507812 C -13.480469 -5.480469 -13.125 -5.53125 -12.777344 -5.652344 C -10.90625 -6.347656 -9.089844 -7.15625 -7.328125 -8.089844 C -4.527344 -9.585938 -2.128906 -11.277344 0.699219 -13.085938 C 1.132812 -13.378906 1.582031 -13.644531 2.046875 -13.886719 C 2.742188 -14.21875 3.492188 -14.449219 4.257812 -14.746094 C 7.429688 -15.800781 10.441406 -16.875 12.996094 -18.898438 C 13.578125 -19.382812 14.097656 -19.925781 14.550781 -20.527344 C 16.441406 -22.867188 17.644531 -25.519531 19.160156 -28.167969 C 19.519531 -28.792969 19.910156 -29.390625 20.335938 -29.972656 C 22.046875 -32.3125 23.867188 -34.507812 25.441406 -37.03125 C 26.253906 -38.363281 27.164062 -39.640625 27.738281 -41.097656 C 29.050781 -44.433594 29.167969 -48.089844 29.960938 -51.671875 C 31.058594 -56.546875 32.507812 -61.445312 33.371094 -66.421875 C 33.390625 -66.730469 33.355469 -67.03125 33.261719 -67.324219 C 33.167969 -67.621094 33.027344 -67.886719 32.832031 -68.128906 C 32.640625 -68.371094 32.40625 -68.566406 32.140625 -68.71875 C 31.871094 -68.875 31.585938 -68.972656 31.277344 -69.019531 C 30.972656 -69.0625 30.671875 -69.050781 30.367188 -68.984375 C 30.066406 -68.914062 29.789062 -68.792969 29.535156 -68.621094 C 29.277344 -68.445312 29.0625 -68.230469 28.890625 -67.976562 C 28.714844 -67.722656 28.59375 -67.441406 28.523438 -67.140625 Z M 47.777344 -68.660156 C 49.214844 -62.972656 48.769531 -55.636719 46.269531 -48.105469 C 44.816406 -43.722656 42.144531 -39.628906 40.078125 -35.191406 C 38.792969 -32.480469 37.863281 -29.617188 36.601562 -26.910156 C 35.339844 -24.203125 34.097656 -21.34375 32.46875 -18.882812 C 31.84375 -17.945312 31.160156 -17.054688 30.421875 -16.210938 C 27.269531 -12.546875 23.550781 -10.019531 20.617188 -7.300781 C 19.578125 -6.339844 18.824219 -5.242188 17.90625 -4.386719 C 15.765625 -2.261719 13.8125 0.0859375 11.59375 2.3125 C 10.714844 3.230469 9.773438 4.078125 8.769531 4.859375 C 5.472656 7.359375 1.773438 8.875 -2.328125 9.402344 L -12.179688 10.570312 C -12.53125 10.609375 -12.863281 10.710938 -13.171875 10.878906 C -13.480469 11.046875 -13.746094 11.269531 -13.96875 11.542969 C -14.191406 11.816406 -14.351562 12.125 -14.449219 12.460938 C -14.550781 12.800781 -14.582031 13.144531 -14.542969 13.496094 C -14.507812 13.847656 -14.402344 14.175781 -14.234375 14.484375 C -14.066406 14.796875 -13.84375 15.0625 -13.570312 15.28125 C -13.296875 15.503906 -12.988281 15.664062 -12.652344 15.765625 C -12.3125 15.863281 -11.96875 15.894531 -11.617188 15.855469 L -1.65625 13.425781 C 1.074219 12.785156 3.644531 11.734375 6.046875 10.277344 C 7.667969 9.332031 9.148438 8.183594 10.714844 7.136719 C 11.78125 6.417969 12.90625 5.761719 14 5.066406 C 16.5625 3.464844 19.074219 1.960938 21.621094 0.566406 C 22.992188 -0.234375 24.449219 -1.046875 25.75 -2.238281 C 26.042969 -2.53125 26.316406 -2.839844 26.570312 -3.167969 C 29.300781 -6.441406 31.589844 -10.554688 34.328125 -14.789062 C 35.019531 -15.859375 35.820312 -16.921875 36.601562 -17.980469 C 39.648438 -22.121094 42.933594 -26.289062 45.4375 -30.984375 C 46.0625 -32.140625 46.621094 -33.328125 47.105469 -34.546875 C 48.6875 -38.589844 49.515625 -42.757812 50.460938 -46.742188 C 50.707031 -47.777344 50.980469 -48.796875 51.234375 -49.789062 C 53.078125 -57.210938 53.800781 -64.136719 52.542969 -69.804688 C 52.445312 -70.097656 52.300781 -70.363281 52.105469 -70.605469 C 51.910156 -70.84375 51.675781 -71.039062 51.40625 -71.1875 C 51.136719 -71.339844 50.847656 -71.4375 50.542969 -71.480469 C 50.234375 -71.519531 49.929688 -71.507812 49.632812 -71.433594 C 49.332031 -71.363281 49.054688 -71.238281 48.800781 -71.0625 C 48.546875 -70.882812 48.332031 -70.667969 48.160156 -70.410156 C 47.988281 -70.152344 47.871094 -69.875 47.804688 -69.570312 C 47.738281 -69.269531 47.726562 -68.964844 47.777344 -68.660156 Z M 72.324219 -72.261719 C 72.269531 -69.375 71.753906 -64.484375 71.109375 -59.734375 C 70.378906 -54.417969 69.496094 -49.28125 68.964844 -47.316406 C 68.433594 -45.351562 67.792969 -43.550781 67.113281 -41.699219 C 65.523438 -37.367188 63.523438 -33.246094 61.640625 -29.101562 C 61.242188 -28.203125 60.839844 -27.324219 60.464844 -26.425781 C 57.824219 -19.816406 55.40625 -13.210938 51.824219 -7.171875 C 50.941406 -5.640625 49.96875 -4.167969 48.902344 -2.757812 C 45.722656 1.351562 41.726562 4.699219 37.824219 8.234375 C 36.882812 9.089844 35.894531 9.90625 34.984375 10.828125 C 31.957031 13.871094 29.203125 17.148438 25.894531 20.070312 C 24.246094 21.507812 22.421875 23.125 20.324219 24.53125 C 19 25.398438 17.625 26.179688 16.199219 26.867188 C 12.5625 28.648438 8.707031 29.921875 5.246094 30.273438 C 3.703125 30.425781 -1.023438 31.875 -5.03125 32.65625 C -6.472656 32.929688 -7.789062 33.097656 -8.738281 33.015625 C -9.089844 33.003906 -9.429688 33.058594 -9.761719 33.183594 C -10.09375 33.304688 -10.386719 33.488281 -10.644531 33.726562 C -10.902344 33.96875 -11.105469 34.25 -11.253906 34.570312 C -11.398438 34.890625 -11.480469 35.226562 -11.492188 35.578125 C -11.503906 35.929688 -11.449219 36.273438 -11.328125 36.601562 C -11.203125 36.933594 -11.023438 37.226562 -10.78125 37.488281 C -10.542969 37.746094 -10.261719 37.949219 -9.941406 38.09375 C -9.621094 38.242188 -9.28125 38.320312 -8.929688 38.332031 C -7.613281 38.320312 -5.804688 37.980469 -3.867188 37.417969 C -0.078125 36.3125 4.332031 34.476562 5.8125 34.199219 C 8.171875 33.761719 10.65625 32.933594 13.148438 31.832031 C 15.644531 30.734375 18.300781 29.167969 20.851562 27.792969 C 23.398438 26.417969 26.238281 25.050781 28.5 23.691406 C 31.707031 21.875 34.746094 19.992188 37.597656 17.820312 C 38.867188 16.902344 40.0625 15.902344 41.1875 14.816406 C 45.277344 10.652344 48.214844 5.679688 51.304688 0.84375 C 52.070312 -0.347656 52.828125 -1.5625 53.640625 -2.738281 C 56.359375 -6.632812 59.179688 -10.433594 61.648438 -14.519531 C 63.507812 -17.636719 65.363281 -20.753906 66.835938 -24.089844 C 67.199219 -24.917969 67.515625 -25.765625 67.808594 -26.628906 C 69.359375 -31.089844 70.449219 -35.671875 71.621094 -40.308594 C 72.109375 -42.269531 72.640625 -44.210938 73.105469 -46.171875 C 73.765625 -48.53125 75.003906 -55.277344 75.960938 -61.605469 C 76.582031 -65.660156 77.089844 -69.5625 77.21875 -72.058594 C 77.199219 -72.363281 77.125 -72.65625 77 -72.933594 C 76.871094 -73.210938 76.699219 -73.457031 76.480469 -73.667969 C 76.261719 -73.882812 76.011719 -74.050781 75.730469 -74.167969 C 75.453125 -74.289062 75.160156 -74.355469 74.855469 -74.367188 C 74.546875 -74.378906 74.25 -74.335938 73.960938 -74.234375 C 73.675781 -74.136719 73.414062 -73.988281 73.179688 -73.789062 C 72.945312 -73.59375 72.753906 -73.363281 72.609375 -73.09375 C 72.460938 -72.828125 72.367188 -72.542969 72.328125 -72.238281 Z M 81.09375 -73 C 81.464844 -69.007812 81.625 -65.011719 81.574219 -61.003906 C 81.527344 -56.984375 81.269531 -52.976562 80.808594 -48.984375 C 80.453125 -46.25 79.933594 -43.550781 79.25 -40.878906 C 77.695312 -35.054688 74.835938 -29.109375 72.3125 -22.824219 C 70.042969 -17.15625 68.023438 -11.269531 65.285156 -5.785156 C 63.988281 -3.164062 62.6875 -0.585938 61.164062 1.796875 C 60.492188 2.832031 59.773438 3.832031 59 4.796875 C 55.167969 9.535156 50.707031 13.570312 45.605469 16.90625 C 45.011719 17.320312 44.390625 17.6875 43.820312 18.117188 C 41.429688 19.875 39.082031 21.757812 36.527344 23.449219 C 33.191406 25.660156 29.820312 27.761719 26.6875 29.972656 C 25.71875 30.609375 24.800781 31.285156 23.804688 31.878906 C 21.527344 33.234375 19.183594 34.464844 16.773438 35.566406 C 13.425781 37.175781 9.941406 38.386719 6.320312 39.203125 C 4.035156 39.695312 1.679688 40.105469 -0.710938 40.457031 C -3.101562 40.804688 -5.457031 41.0625 -7.796875 41.269531 C -8.144531 41.316406 -8.472656 41.425781 -8.78125 41.597656 C -9.085938 41.773438 -9.347656 42 -9.5625 42.28125 C -9.777344 42.558594 -9.933594 42.867188 -10.023438 43.207031 C -10.117188 43.546875 -10.140625 43.894531 -10.097656 44.242188 C -10.050781 44.59375 -9.941406 44.921875 -9.765625 45.226562 C -9.59375 45.53125 -9.367188 45.792969 -9.085938 46.007812 C -8.808594 46.222656 -8.5 46.378906 -8.160156 46.472656 C -7.816406 46.5625 -7.472656 46.585938 -7.125 46.542969 C -4.722656 46.125 -2.28125 45.65625 0.167969 45.078125 C 2.617188 44.496094 4.996094 43.878906 7.316406 43.183594 C 10.371094 42.261719 13.3125 41.074219 16.152344 39.621094 C 19.046875 38.160156 21.792969 36.421875 24.671875 34.828125 C 25.882812 34.160156 27.125 33.578125 28.363281 32.949219 C 33.257812 30.71875 38.597656 28.832031 43.605469 26.40625 C 45.179688 25.625 46.734375 24.871094 48.148438 23.886719 C 48.761719 23.441406 49.347656 22.964844 49.910156 22.453125 C 53.84375 18.828125 57.464844 14.300781 60.851562 9.160156 C 61.636719 7.964844 62.371094 6.730469 63.199219 5.511719 C 63.722656 4.726562 64.320312 3.960938 64.886719 3.171875 C 69.460938 -3.171875 73.796875 -10.132812 77.292969 -17.386719 C 77.75 -18.359375 78.25 -19.320312 78.640625 -20.304688 C 81.191406 -26.90625 82.421875 -33.695312 83.621094 -39.875 C 84.199219 -42.875 84.753906 -45.714844 85.074219 -48.433594 C 85.625 -52.34375 85.980469 -56.566406 86.144531 -60.871094 C 86.304688 -65.042969 86.25 -69.210938 85.980469 -73.378906 C 85.929688 -73.679688 85.824219 -73.964844 85.667969 -74.230469 C 85.511719 -74.496094 85.308594 -74.722656 85.066406 -74.914062 C 84.824219 -75.101562 84.554688 -75.242188 84.257812 -75.328125 C 83.964844 -75.417969 83.660156 -75.449219 83.355469 -75.421875 C 83.046875 -75.398438 82.753906 -75.316406 82.476562 -75.183594 C 82.199219 -75.046875 81.957031 -74.867188 81.75 -74.640625 C 81.539062 -74.414062 81.378906 -74.15625 81.265625 -73.871094 C 81.152344 -73.582031 81.097656 -73.285156 81.097656 -72.976562 Z M 60.214844 -70.046875 C 61.265625 -64.441406 60.488281 -58.269531 58.992188 -52.160156 C 58.554688 -50.34375 58.09375 -48.519531 57.46875 -46.765625 C 55.929688 -42.371094 53.878906 -38.3125 52.289062 -34.496094 C 51.730469 -32.949219 51.046875 -31.476562 50.503906 -29.957031 C 48.207031 -23.613281 46.207031 -17.417969 43.027344 -11.898438 C 42.632812 -11.183594 42.199219 -10.488281 41.730469 -9.816406 C 40.96875 -8.839844 40.160156 -7.910156 39.292969 -7.027344 C 36.203125 -3.617188 32.464844 -1.042969 29.085938 2.046875 C 24.410156 6.328125 20.410156 11.390625 14.617188 14.632812 C 10.949219 16.683594 6.796875 17.929688 2.511719 19.144531 C -0.878906 20.046875 -2.554688 21.085938 -5.304688 21.773438 C -6.601562 22.09375 -8.160156 22.316406 -10.3125 22.410156 C -10.664062 22.445312 -10.996094 22.546875 -11.304688 22.714844 C -11.617188 22.882812 -11.882812 23.101562 -12.105469 23.375 C -12.328125 23.648438 -12.492188 23.957031 -12.59375 24.292969 C -12.691406 24.632812 -12.726562 24.976562 -12.691406 25.328125 C -12.652344 25.679688 -12.550781 26.007812 -12.386719 26.320312 C -12.21875 26.628906 -11.996094 26.894531 -11.722656 27.117188 C -11.449219 27.339844 -11.144531 27.503906 -10.804688 27.605469 C -10.46875 27.703125 -10.125 27.738281 -9.773438 27.703125 C -7.234375 27.308594 -5.417969 26.832031 -3.925781 26.285156 C -1.214844 25.292969 0.375 24.105469 3.695312 22.835938 C 7.835938 21.324219 11.625 19.367188 15.394531 17.570312 C 17.160156 16.71875 18.941406 15.976562 20.667969 15.15625 C 24.898438 13.140625 28.890625 11.003906 32.617188 8.363281 C 33.054688 8.070312 33.476562 7.753906 33.878906 7.417969 C 34.460938 6.878906 35.003906 6.300781 35.511719 5.691406 C 38.960938 1.746094 41.566406 -2.695312 44.4375 -7.144531 C 45.277344 -8.4375 46.191406 -9.667969 47.078125 -10.945312 C 50.566406 -15.964844 54.042969 -21.097656 56.484375 -26.992188 C 57.21875 -28.757812 57.738281 -30.632812 58.328125 -32.496094 C 59.332031 -36.53125 60.351562 -40.96875 61.558594 -45.5 C 62.769531 -50.03125 64.136719 -54.359375 64.804688 -58.753906 C 65.472656 -63.148438 65.628906 -66.984375 65.027344 -70.839844 C 64.949219 -71.136719 64.820312 -71.410156 64.640625 -71.660156 C 64.460938 -71.910156 64.242188 -72.117188 63.984375 -72.285156 C 63.722656 -72.453125 63.445312 -72.566406 63.144531 -72.628906 C 62.839844 -72.691406 62.539062 -72.699219 62.234375 -72.644531 C 61.933594 -72.59375 61.648438 -72.488281 61.382812 -72.332031 C 61.121094 -72.175781 60.894531 -71.972656 60.703125 -71.730469 C 60.515625 -71.488281 60.378906 -71.21875 60.289062 -70.925781 C 60.203125 -70.628906 60.171875 -70.328125 60.195312 -70.019531 Z M 60.214844 -70.046875 "/></g></g></g><g clip-rule="nonzero" clip-path="url(#f478431490)"><g clip-rule="nonzero" clip-path="url(#c6fad8206b)"><g clip-rule="nonzero" clip-path="url(#9e31e96697)"><path style=" stroke:none;fill-rule:evenodd;fill:#ffffff;fill-opacity:1;" d="M 359.625 218.125 C 359.53125 218.359375 359.414062 218.582031 359.269531 218.789062 C 358.851562 219.40625 358.273438 219.738281 357.53125 219.796875 C 356.851562 219.859375 355.835938 219.601562 355.191406 219.414062 C 354.886719 219.589844 354.671875 219.664062 354.796875 219.308594 C 354.679688 219.300781 354.5625 219.273438 354.449219 219.230469 C 353.820312 218.984375 353.628906 218.300781 354.007812 217.675781 C 354.148438 217.46875 354.324219 217.308594 354.542969 217.1875 L 354.507812 217.128906 C 354.433594 217.042969 354.367188 216.929688 354.300781 216.816406 C 353.375 215.828125 352.683594 214.695312 352.234375 213.417969 C 351.34375 210.996094 351.246094 208.222656 351.851562 206.621094 C 352.457031 205.019531 353.445312 204.347656 354.640625 204.117188 C 355.589844 203.90625 356.476562 204.066406 357.292969 204.597656 C 358.128906 205.160156 358.90625 206.242188 359.386719 207.648438 C 359.707031 208.574219 359.9375 209.519531 360.082031 210.488281 C 360.328125 210.96875 360.546875 211.464844 360.738281 211.972656 C 361.292969 213.460938 361.5625 214.941406 361.347656 215.984375 C 361.261719 216.453125 361.070312 216.878906 360.769531 217.253906 C 360.472656 217.628906 360.105469 217.914062 359.664062 218.105469 Z M 393.820312 185.90625 C 393.742188 185.089844 393.878906 184.3125 394.230469 183.574219 C 394.546875 182.929688 395.15625 182.527344 395.832031 182.238281 C 396.507812 181.953125 397.699219 181.976562 398.226562 182.054688 C 399.804688 182.445312 400.691406 183.183594 401.085938 184.128906 C 401.691406 185.664062 401.0625 187.664062 400.746094 188.535156 C 400.644531 188.878906 400.445312 189.15625 400.152344 189.363281 C 399.859375 189.570312 399.53125 189.664062 399.171875 189.648438 L 399.09375 189.644531 L 398.78125 189.898438 C 397.648438 190.808594 395.785156 191.070312 394.292969 189.023438 C 393.871094 188.398438 393.652344 187.710938 393.632812 186.957031 C 393.636719 186.585938 393.691406 186.222656 393.796875 185.867188 Z M 382.816406 200.816406 C 382.902344 200.96875 382.984375 201.152344 383.085938 201.324219 C 383.988281 203.199219 384.421875 205.269531 384.0625 206.550781 C 383.96875 206.960938 383.785156 207.328125 383.515625 207.652344 C 383.242188 207.976562 382.910156 208.21875 382.523438 208.382812 C 379.097656 210.007812 375.957031 206.695312 374.910156 202.988281 C 374.40625 201.1875 374.421875 199.363281 374.921875 198.105469 C 375.160156 197.4375 375.546875 196.871094 376.085938 196.410156 C 376.625 195.949219 377.246094 195.652344 377.941406 195.519531 C 378.519531 195.390625 379.09375 195.417969 379.65625 195.597656 C 380.21875 195.777344 380.703125 196.085938 381.101562 196.523438 C 381.9375 197.445312 382.597656 199.027344 382.820312 200.734375 L 382.855469 200.792969 Z M 334.796875 232.863281 C 334.511719 234.890625 333.519531 236.433594 332.082031 236.601562 C 331.796875 236.660156 331.511719 236.664062 331.222656 236.613281 C 330.597656 236.597656 330.078125 236.351562 329.671875 235.875 C 329.539062 235.726562 329.421875 235.566406 329.316406 235.394531 C 328.378906 234.253906 327.714844 232.3125 327.640625 230.417969 C 327.570312 229.203125 327.792969 228.042969 328.3125 226.941406 C 328.882812 225.765625 329.78125 224.953125 331.015625 224.511719 C 332.59375 223.980469 334.011719 224.359375 334.96875 225.617188 C 336.113281 227.152344 336.605469 230.03125 336.496094 231.214844 C 336.464844 231.742188 336.246094 232.167969 335.832031 232.492188 C 335.644531 232.652344 335.195312 232.761719 334.816406 232.902344 Z M 331.882812 229.0625 L 332 228.996094 C 332.023438 228.964844 332.019531 228.945312 331.984375 228.925781 C 331.925781 228.910156 331.90625 228.972656 331.914062 229.070312 Z M 355.191406 219.414062 L 355.535156 219.214844 C 355.324219 219.308594 355.101562 219.351562 354.871094 219.34375 C 354.839844 219.335938 354.816406 219.296875 354.808594 219.328125 L 354.789062 219.339844 L 354.871094 219.34375 L 355.171875 219.425781 Z M 410.757812 202.804688 C 411.140625 203.90625 411.417969 205.179688 411.113281 206.195312 C 410.933594 206.855469 410.574219 207.402344 410.042969 207.835938 C 409.332031 208.375 408.535156 208.699219 407.648438 208.8125 C 404.472656 209.5 402.574219 206.082031 402.664062 203.144531 C 402.667969 202.890625 402.691406 202.640625 402.734375 202.386719 C 402.792969 201.78125 402.976562 201.21875 403.285156 200.691406 C 403.636719 200.117188 404.105469 199.660156 404.6875 199.320312 L 405.089844 199.089844 C 405.679688 198.8125 406.296875 198.710938 406.941406 198.785156 C 407.589844 198.855469 408.171875 199.089844 408.6875 199.484375 C 409.550781 200.1875 410.167969 201.0625 410.539062 202.113281 C 410.621094 202.347656 410.695312 202.558594 410.746094 202.785156 Z M 427.84375 190.957031 C 428.171875 191.234375 428.464844 191.542969 428.730469 191.875 C 429.390625 192.722656 429.871094 193.660156 430.179688 194.6875 C 430.523438 195.816406 430.546875 196.824219 430.230469 197.464844 C 429.910156 198.109375 428.796875 198.523438 428.296875 198.710938 C 427.945312 198.980469 427.550781 199.082031 427.117188 199.011719 C 426.894531 198.976562 426.707031 198.878906 426.550781 198.714844 C 426.398438 198.554688 426.308594 198.363281 426.28125 198.140625 L 426.261719 198.152344 C 424.898438 198.53125 423.800781 198.042969 423.105469 196.839844 C 422.925781 196.523438 422.765625 196.199219 422.621094 195.867188 C 422.460938 195.503906 422.328125 195.128906 422.226562 194.742188 C 421.199219 193.984375 420.753906 192.507812 422.054688 190.964844 C 422.753906 190.109375 423.652344 189.617188 424.746094 189.484375 C 425.90625 189.324219 427.097656 189.886719 427.867188 190.996094 Z M 361.253906 242.828125 C 361.25 243.242188 361.195312 243.648438 361.089844 244.046875 C 360.957031 244.582031 360.714844 245.054688 360.359375 245.476562 C 360.007812 245.894531 359.578125 246.214844 359.074219 246.4375 C 357.765625 247.039062 356.339844 246.691406 355.085938 245.578125 C 354.769531 245.296875 354.476562 244.988281 354.21875 244.652344 L 353.601562 244.472656 C 353.449219 244.4375 353.308594 244.371094 353.1875 244.269531 C 353.066406 244.167969 352.972656 244.046875 352.910156 243.902344 C 352.847656 243.757812 352.820312 243.605469 352.828125 243.449219 C 352.835938 243.289062 352.878906 243.144531 352.960938 243.007812 L 353.074219 242.8125 C 352.574219 241.824219 352.199219 240.792969 351.949219 239.710938 C 351.488281 237.679688 351.683594 235.679688 352.410156 234.417969 C 352.761719 233.78125 353.25 233.269531 353.875 232.890625 C 354.496094 232.515625 355.171875 232.316406 355.902344 232.296875 C 357.097656 232.246094 358.570312 232.898438 359.695312 234.265625 C 361.296875 236.195312 362.378906 239.398438 361.773438 241.609375 C 361.65625 242.046875 361.488281 242.460938 361.261719 242.847656 Z M 381.988281 234.03125 C 381.882812 234.519531 381.648438 234.9375 381.28125 235.28125 C 380.644531 235.914062 379.875 236.230469 378.976562 236.234375 C 378.757812 236.257812 378.546875 236.253906 378.332031 236.222656 C 377.15625 236.265625 375.96875 235.625 375.089844 234.5 C 374.210938 233.375 373.472656 231.042969 373.726562 229.496094 C 373.980469 227.945312 374.867188 226.792969 376.238281 226.332031 C 377.605469 225.875 378.582031 225.972656 379.574219 226.496094 C 380.972656 227.242188 382.132812 228.894531 382.566406 230.484375 C 383 232.070312 382.667969 233.308594 382.039062 234.027344 Z M 344.046875 250.761719 L 344.289062 250.828125 C 345.710938 251.304688 346.78125 252.625 347.136719 254.257812 C 347.699219 256.816406 346.699219 259.714844 344.410156 260.171875 C 341.636719 261.113281 339.167969 258.429688 338.316406 255.503906 C 337.890625 254.015625 337.925781 252.488281 338.367188 251.441406 C 338.59375 250.878906 338.9375 250.398438 339.394531 250 C 339.855469 249.605469 340.382812 249.335938 340.972656 249.195312 C 341.480469 249.054688 341.980469 249.082031 342.472656 249.273438 C 343.074219 249.5625 343.554688 249.992188 343.90625 250.5625 L 344.015625 250.753906 Z M 406.4375 231.300781 C 403.988281 232.183594 402.355469 231.570312 400.234375 230.371094 C 398.945312 229.636719 397.746094 228.316406 396.867188 226.753906 C 395.625 224.515625 395.132812 221.8125 395.554688 219.9375 C 395.976562 218.058594 397.183594 216.75 399.121094 216.394531 C 401.058594 216.039062 403.1875 216.851562 404.996094 218.433594 L 405.027344 218.492188 C 405.832031 219.066406 406.492188 219.769531 407.015625 220.605469 C 407.089844 220.734375 407.164062 220.863281 407.238281 220.988281 C 408.253906 222.394531 408.972656 223.8125 409.171875 224.820312 C 409.28125 225.222656 409.355469 225.632812 409.394531 226.046875 C 409.390625 226.433594 408.421875 230.585938 406.417969 231.3125 Z M 426.769531 217.125 C 426.753906 216.640625 426.808594 216.164062 426.941406 215.699219 C 427.140625 215.074219 427.632812 214.6875 428.058594 214.363281 C 428.589844 213.960938 429.191406 213.746094 429.855469 213.714844 C 430.523438 213.683594 431.140625 213.84375 431.707031 214.191406 C 432.507812 214.648438 433.171875 215.617188 433.5625 216.691406 C 434.117188 218.3125 434.078125 220.144531 433.546875 220.988281 C 433.011719 221.832031 432.25 222.453125 431.125 222.183594 C 431.003906 222.167969 430.890625 222.128906 430.78125 222.078125 C 430.554688 222.136719 430.328125 222.164062 430.09375 222.167969 C 429.933594 222.179688 429.773438 222.171875 429.617188 222.136719 C 428.882812 222.105469 428.207031 221.886719 427.589844 221.484375 C 426.972656 221.082031 426.5 220.550781 426.175781 219.890625 C 425.609375 218.558594 426.140625 217.667969 426.742188 217.164062 Z M 401.574219 248.53125 C 401.378906 249.046875 401.070312 249.484375 400.644531 249.835938 C 397.398438 252.78125 393.664062 251.574219 391.433594 248.910156 C 390.238281 247.507812 389.523438 245.648438 389.570312 243.964844 C 389.585938 243.105469 389.792969 242.296875 390.183594 241.535156 C 390.578125 240.777344 391.121094 240.140625 391.808594 239.632812 C 393.46875 238.394531 395.160156 238.230469 396.726562 238.957031 C 398.296875 239.683594 399.261719 240.785156 400.164062 242.253906 C 400.464844 242.746094 400.730469 243.253906 400.96875 243.777344 C 401.511719 244.742188 401.8125 245.773438 401.871094 246.878906 C 401.933594 247.449219 401.847656 247.992188 401.613281 248.507812 Z M 382.035156 259.75 C 381.996094 262.554688 380.566406 264.9375 377.105469 265.792969 C 375.816406 266.125 374.644531 265.730469 373.652344 264.851562 C 372.660156 263.972656 372.144531 262.992188 371.660156 261.667969 C 371.246094 260.554688 370.976562 259.410156 370.847656 258.234375 C 370.699219 256.964844 370.746094 255.707031 370.984375 254.453125 C 371.25 253.152344 371.847656 252.195312 372.460938 251.710938 C 372.785156 251.453125 373.132812 251.234375 373.507812 251.054688 C 373.910156 250.542969 374.421875 250.191406 375.039062 249.992188 C 376.066406 249.652344 377.265625 249.828125 378.328125 250.742188 C 379.394531 251.65625 380.4375 253.328125 381.132812 255.195312 C 381.558594 256.285156 381.84375 257.414062 381.992188 258.578125 C 382.023438 258.679688 382.050781 258.78125 382.070312 258.886719 C 382.132812 259.175781 382.128906 259.457031 382.050781 259.742188 Z M 360.691406 275.355469 C 359.976562 276.332031 358.832031 276.867188 357.210938 276.707031 C 355.585938 276.546875 354.4375 275.09375 353.785156 273.125 C 353.402344 271.890625 353.214844 270.628906 353.230469 269.335938 C 353.226562 268.339844 353.386719 267.371094 353.714844 266.425781 C 353.808594 266.195312 354.546875 264.953125 355.261719 264.511719 C 355.804688 264.128906 356.402344 263.988281 357.058594 264.085938 C 357.792969 264.261719 358.394531 264.644531 358.871094 265.234375 C 359.414062 265.488281 359.875 265.851562 360.242188 266.328125 C 361.183594 267.46875 362.113281 269.609375 362.296875 271.339844 C 362.414062 272.132812 362.339844 272.902344 362.082031 273.660156 C 361.820312 274.414062 361.347656 274.992188 360.664062 275.398438 Z M 420.277344 241.113281 C 420.019531 241.15625 418.03125 241.160156 417.511719 241.230469 C 415.609375 241.515625 413.042969 241.007812 411.574219 239.917969 C 409.644531 238.480469 409.199219 236.210938 412.390625 233.476562 C 415.121094 231.359375 417.34375 231.757812 418.972656 233.34375 C 420.601562 234.925781 421.414062 237.699219 421.5625 238.964844 C 421.660156 239.800781 421.390625 240.390625 421.25 240.550781 C 421 240.859375 420.679688 241.054688 420.285156 241.132812 Z M 420.878906 238.800781 L 420.949219 238.835938 Z M 420.613281 254.980469 C 420.472656 255.222656 420.320312 255.457031 420.148438 255.679688 C 418.511719 258.054688 414.039062 257.554688 411.273438 255.070312 C 409.933594 253.855469 409.035156 252.253906 409.027344 250.476562 C 409.007812 249.210938 409.472656 247.894531 410.460938 246.558594 C 411.449219 245.222656 413.039062 244.53125 414.5625 244.695312 C 416.089844 244.859375 417.15625 245.46875 418.375 246.472656 C 420.875 248.550781 422.875 252.011719 422.855469 253.121094 C 422.859375 253.5625 422.71875 253.949219 422.429688 254.285156 C 422.628906 254.757812 422.132812 255.09375 420.621094 254.996094 Z M 419.808594 241.050781 L 419.6875 241.070312 Z M 389.519531 263.871094 C 389.359375 263.496094 389.230469 263.113281 389.132812 262.714844 C 388.910156 261.859375 388.929688 261.007812 389.183594 260.160156 C 389.386719 259.097656 390.152344 258.347656 391.246094 257.898438 C 391.480469 257.808594 391.726562 257.742188 391.976562 257.703125 C 393.5 257.253906 394.683594 257.667969 395.570312 258.535156 C 396.09375 259.082031 396.4375 259.722656 396.605469 260.460938 C 397.226562 262.859375 396.589844 266.261719 396.085938 267.066406 C 395.582031 267.867188 394.585938 268.265625 394.023438 268.003906 C 393.566406 267.839844 393.296875 267.519531 393.214844 267.042969 C 393.191406 266.964844 393.179688 266.886719 393.179688 266.804688 L 392.746094 266.804688 L 392.53125 266.875 C 392.070312 266.960938 391.53125 267.222656 391.105469 266.882812 C 390.972656 266.78125 390.703125 266.757812 390.589844 266.519531 C 390.34375 266.144531 390.199219 265.734375 390.160156 265.285156 C 389.976562 265.15625 389.839844 264.988281 389.742188 264.789062 C 389.613281 264.480469 389.480469 264.199219 389.546875 263.878906 Z M 369.09375 283.84375 C 368.675781 284.445312 367.957031 284.707031 367.597656 284.835938 C 367.242188 284.964844 366.683594 284.882812 366.113281 284.648438 C 365.609375 284.398438 365.210938 284.03125 364.917969 283.554688 C 364.675781 283.203125 364.519531 282.816406 364.453125 282.394531 C 364.316406 281.324219 364.5625 280.289062 365.316406 279.648438 C 365.511719 279.394531 365.746094 279.183594 366.019531 279.011719 C 366.8125 278.53125 367.777344 278.125 368.738281 278.820312 C 369.1875 279.121094 369.5 279.527344 369.675781 280.039062 C 369.800781 280.476562 369.6875 281.253906 369.742188 281.65625 C 369.796875 282.058594 370.167969 281.820312 370.003906 281.890625 C 369.929688 281.796875 369.84375 281.71875 369.742188 281.65625 C 369.773438 281.84375 369.828125 281.941406 369.972656 281.882812 L 369.992188 281.871094 C 370.027344 281.90625 370.0625 281.949219 370.089844 281.992188 C 370.398438 282.527344 370.117188 283.277344 369.46875 283.652344 C 369.359375 283.734375 369.242188 283.792969 369.113281 283.832031 Z M 435.414062 253.261719 C 433.570312 252.589844 432.207031 250.851562 431.539062 248.765625 C 430.867188 246.675781 430.941406 244.644531 431.609375 242.929688 C 432.277344 241.214844 433.808594 239.667969 435.835938 239.210938 C 436.554688 239.042969 437.277344 239.019531 438.003906 239.132812 C 438.730469 239.246094 439.410156 239.488281 440.042969 239.863281 C 441.953125 241.007812 443.453125 243.378906 444.179688 245.742188 C 444.785156 247.714844 444.855469 249.6875 444.449219 250.839844 C 444.207031 251.628906 443.726562 252.222656 443.003906 252.621094 C 442.273438 253.023438 441.511719 253.078125 440.730469 252.789062 L 440.554688 252.710938 C 439.96875 253.347656 439.246094 253.730469 438.390625 253.863281 C 437.324219 254.074219 436.34375 253.878906 435.441406 253.269531 Z M 404.382812 265.484375 L 404.863281 265.742188 C 405.777344 266.308594 406.753906 267.378906 407.578125 268.585938 C 408.5625 270.0625 409.421875 271.605469 410.15625 273.21875 C 410.414062 273.710938 410.226562 274.355469 409.707031 274.78125 C 409.265625 275.148438 408.769531 275.25 408.222656 275.078125 C 407.753906 275.753906 407.113281 276.164062 406.304688 276.3125 C 405.632812 276.597656 404.933594 276.742188 404.203125 276.738281 C 402.503906 276.753906 400.988281 275.765625 399.957031 274.292969 C 399.054688 273.007812 398.628906 271.578125 398.679688 270.007812 C 398.738281 268.621094 399.234375 267.417969 400.164062 266.394531 C 400.625 265.878906 401.179688 265.496094 401.824219 265.253906 C 402.230469 265.050781 402.65625 264.964844 403.105469 264.996094 C 403.5625 265.050781 403.988281 265.195312 404.378906 265.433594 Z M 389.730469 283.878906 C 389.640625 284.824219 389.351562 285.605469 388.871094 286.011719 C 386.96875 287.800781 384.722656 287.132812 383.023438 285.257812 C 381.875 283.953125 381.179688 282.441406 380.9375 280.722656 C 380.820312 279.671875 381.027344 278.695312 381.5625 277.785156 C 382.230469 276.734375 383.066406 276.277344 383.910156 276.195312 C 384.613281 276.109375 385.265625 276.25 385.867188 276.621094 C 386.109375 276.777344 386.339844 276.949219 386.550781 277.144531 C 386.882812 277.191406 387.183594 277.304688 387.464844 277.484375 C 388.152344 277.929688 388.75 278.785156 389.160156 279.847656 L 389.253906 280.097656 C 389.597656 280.550781 389.832031 281.054688 389.949219 281.609375 C 389.984375 281.785156 390.003906 281.964844 390.003906 282.140625 C 390.082031 282.367188 390.140625 282.597656 390.171875 282.835938 C 390.195312 283.21875 390.074219 283.554688 389.808594 283.835938 Z M 409.523438 272.742188 C 409.539062 272.632812 409.542969 272.554688 409.472656 272.570312 L 409.484375 272.714844 Z M 378.683594 303.078125 C 378.28125 304.328125 377.351562 305.328125 375.832031 305.875 C 372.972656 306.886719 370.996094 305.453125 370.128906 303.023438 C 369.589844 301.519531 369.554688 299.601562 369.949219 297.945312 C 370.34375 296.289062 371.230469 294.910156 372.261719 294.132812 C 372.710938 293.792969 373.207031 293.550781 373.75 293.402344 C 374.1875 293.257812 374.632812 293.179688 375.089844 293.160156 C 376.007812 293.113281 376.996094 293.539062 377.761719 294.425781 C 377.890625 294.578125 378.007812 294.738281 378.117188 294.90625 C 378.300781 295.074219 378.472656 295.253906 378.636719 295.449219 C 380.324219 297.355469 381.503906 300.144531 381.363281 301.449219 C 381.226562 302.753906 380.765625 302.972656 380.089844 303.261719 C 379.855469 303.375 379.609375 303.417969 379.351562 303.390625 C 379.089844 303.359375 378.863281 303.257812 378.664062 303.089844 Z M 437.171875 265.4375 C 437.703125 265.832031 438.171875 266.292969 438.582031 266.816406 C 440.296875 269.039062 440.691406 272.28125 439.167969 274.234375 C 436.359375 277.847656 431.820312 277.460938 429.128906 275.007812 C 426.730469 272.800781 426.082031 268.988281 429.191406 265.710938 C 430.390625 264.480469 431.582031 263.894531 432.691406 263.738281 C 434.339844 263.5 435.964844 264.144531 437.160156 265.417969 Z M 401.601562 303.660156 C 400.933594 304.195312 400.1875 304.582031 399.363281 304.824219 C 395.535156 305.964844 392.847656 303.792969 392.003906 300.65625 C 391.164062 297.519531 392.296875 294.058594 394.824219 292.113281 C 396.292969 291.035156 397.757812 290.875 399.164062 291.542969 C 400.183594 292.027344 401.191406 293.023438 401.984375 294.300781 C 403.710938 297.027344 404.601562 300.953125 404.121094 302.277344 C 403.9375 302.832031 403.585938 303.238281 403.066406 303.5 C 402.601562 303.742188 402.121094 303.789062 401.617188 303.648438 Z M 416.203125 289.550781 C 416.050781 290.15625 415.695312 290.601562 415.136719 290.882812 L 414.664062 291.078125 C 414.203125 291.328125 413.710938 291.476562 413.1875 291.523438 C 412.523438 291.644531 411.878906 291.574219 411.253906 291.316406 C 410.796875 291.113281 410.421875 290.8125 410.121094 290.414062 C 409.273438 289.347656 409.191406 287.480469 409.539062 286.054688 C 409.429688 285.535156 409.46875 285.03125 409.660156 284.535156 C 409.851562 284.039062 410.160156 283.636719 410.589844 283.328125 C 411.175781 282.835938 411.910156 282.695312 412.734375 282.753906 C 413.558594 282.8125 414.945312 283.617188 415.742188 284.867188 C 416.121094 285.476562 416.363281 286.132812 416.476562 286.839844 C 416.652344 287.773438 416.550781 288.671875 416.175781 289.542969 Z M 413.09375 289.15625 C 413.035156 289.210938 412.996094 289.273438 412.976562 289.351562 C 412.980469 289.398438 413.007812 289.40625 413.109375 289.402344 C 413.207031 289.394531 413.1875 289.277344 413.09375 289.15625 Z M 413.09375 289.15625 "/></g></g></g><g clip-rule="nonzero" clip-path="url(#6ba449e367)"><g clip-rule="nonzero" clip-path="url(#f69b9a2f27)"><g clip-rule="nonzero" clip-path="url(#d3f7b5d144)"><g clip-rule="nonzero" clip-path="url(#20604eb1ab)"><path style=" stroke:none;fill-rule:evenodd;fill:#9facba;fill-opacity:1;" d="M 121.445312 246.632812 C 110.949219 247.355469 101.109375 240.382812 98.609375 229.832031 L 91.589844 200.183594 C 87.828125 199.03125 84.761719 195.972656 83.789062 191.871094 C 82.332031 185.710938 86.144531 179.535156 92.308594 178.078125 C 98.472656 176.617188 104.648438 180.425781 106.109375 186.585938 C 107.078125 190.6875 105.710938 194.796875 102.867188 197.515625 L 109.890625 227.160156 C 110.90625 231.457031 114.535156 234.503906 118.699219 235.023438 Z M 121.445312 246.632812 "/></g></g></g></g><g clip-rule="nonzero" clip-path="url(#4c534370f4)"><g clip-rule="nonzero" clip-path="url(#73b60a60e2)"><g clip-rule="nonzero" clip-path="url(#0e2468605f)"><g clip-rule="nonzero" clip-path="url(#164357c92a)"><path style=" stroke:none;fill-rule:evenodd;fill:#8d9ca8;fill-opacity:1;" d="M 121.445312 246.632812 C 120.582031 246.695312 119.71875 246.699219 118.867188 246.65625 L 116.25 235.605469 C 112.085938 235.082031 108.457031 232.035156 107.441406 227.738281 L 100.417969 198.09375 C 103.261719 195.375 104.632812 191.265625 103.660156 187.164062 C 102.300781 181.417969 96.832031 177.71875 91.101562 178.433594 C 91.492188 178.296875 91.894531 178.175781 92.308594 178.078125 C 98.472656 176.617188 104.648438 180.425781 106.109375 186.585938 C 107.078125 190.6875 105.710938 194.796875 102.867188 197.515625 L 109.890625 227.160156 C 110.90625 231.457031 114.535156 234.503906 118.699219 235.023438 Z M 121.445312 246.632812 "/></g></g></g></g><g clip-rule="nonzero" clip-path="url(#4ed52049fb)"><g clip-rule="nonzero" clip-path="url(#d003261906)"><g clip-rule="nonzero" clip-path="url(#f15cf5ad42)"><g clip-rule="nonzero" clip-path="url(#7b06e5e51f)"><path style=" stroke:none;fill-rule:evenodd;fill:#ffe177;fill-opacity:1;" d="M 52.160156 239.957031 L 187.339844 207.9375 C 192.699219 206.667969 198.125 210.011719 199.390625 215.367188 L 219.445312 300.042969 C 220.714844 305.398438 217.367188 310.816406 212.007812 312.085938 L 76.824219 344.105469 C 71.464844 345.375 66.042969 342.03125 64.773438 336.675781 L 44.71875 252 C 43.449219 246.644531 46.796875 241.226562 52.160156 239.957031 Z M 52.160156 239.957031 "/></g></g></g></g><g clip-rule="nonzero" clip-path="url(#e65144d575)"><g clip-rule="nonzero" clip-path="url(#52627e25a8)"><g clip-rule="nonzero" clip-path="url(#0b62b9877b)"><g clip-rule="nonzero" clip-path="url(#4a4b089a6b)"><path style=" stroke:none;fill-rule:evenodd;fill:#ffd064;fill-opacity:1;" d="M 179.765625 209.730469 L 187.339844 207.9375 C 192.699219 206.667969 198.125 210.011719 199.390625 215.367188 L 219.445312 300.042969 C 220.714844 305.398438 217.367188 310.816406 212.007812 312.085938 L 204.433594 313.882812 C 209.796875 312.613281 213.144531 307.191406 211.875 301.835938 L 191.820312 217.160156 C 190.550781 211.804688 185.128906 208.460938 179.765625 209.730469 Z M 179.765625 209.730469 "/></g></g></g></g><g clip-rule="nonzero" clip-path="url(#b000189db3)"><g clip-rule="nonzero" clip-path="url(#e75534776d)"><g clip-rule="nonzero" clip-path="url(#31bdde5843)"><g clip-rule="nonzero" clip-path="url(#bf4e9d6f0b)"><path style=" stroke:none;fill-rule:evenodd;fill:#ffc338;fill-opacity:1;" d="M 217.953125 307.996094 C 216.59375 309.984375 214.523438 311.492188 212.007812 312.085938 L 76.824219 344.105469 C 74.3125 344.699219 71.785156 344.28125 69.675781 343.113281 L 129.867188 266.667969 Z M 217.953125 307.996094 "/></g></g></g></g><g clip-rule="nonzero" clip-path="url(#6e7e2e40af)"><g clip-rule="nonzero" clip-path="url(#1617ecc207)"><g clip-rule="nonzero" clip-path="url(#4ffd721bc1)"><g clip-rule="nonzero" clip-path="url(#bd24c923d8)"><path style=" stroke:none;fill-rule:evenodd;fill:#f5b829;fill-opacity:1;" d="M 217.953125 307.996094 C 216.59375 309.984375 214.523438 311.492188 212.007812 312.085938 L 204.433594 313.882812 C 208.648438 312.882812 211.617188 309.320312 212.078125 305.238281 Z M 217.953125 307.996094 "/></g></g></g></g><g clip-rule="nonzero" clip-path="url(#de21f96d2d)"><g clip-rule="nonzero" clip-path="url(#2e0c059355)"><g clip-rule="nonzero" clip-path="url(#aa833c1593)"><g clip-rule="nonzero" clip-path="url(#a35b84936e)"><path style=" stroke:none;fill-rule:evenodd;fill:#ffd064;fill-opacity:1;" d="M 52.160156 239.957031 L 187.339844 207.9375 C 189.929688 207.324219 192.53125 207.789062 194.675781 209.03125 L 139.835938 286.421875 C 137.554688 289.636719 133.300781 290.644531 129.820312 288.792969 L 46.09375 244.222656 C 47.453125 242.148438 49.570312 240.570312 52.160156 239.957031 Z M 52.160156 239.957031 "/></g></g></g></g><g clip-rule="nonzero" clip-path="url(#c7f24ab5af)"><g clip-rule="nonzero" clip-path="url(#890140fccb)"><g clip-rule="nonzero" clip-path="url(#39b78a5a95)"><g clip-rule="nonzero" clip-path="url(#30598a7dd8)"><path style=" stroke:none;fill-rule:evenodd;fill:#ffc338;fill-opacity:1;" d="M 179.765625 209.730469 L 187.339844 207.9375 C 189.929688 207.324219 192.53125 207.789062 194.675781 209.03125 L 190.78125 214.527344 C 188.636719 210.769531 184.179688 208.6875 179.765625 209.730469 Z M 179.765625 209.730469 "/></g></g></g></g><g clip-rule="nonzero" clip-path="url(#a1e1e97bab)"><g clip-rule="nonzero" clip-path="url(#2c47d1d084)"><g clip-rule="nonzero" clip-path="url(#dec5f74f4b)"><g clip-rule="nonzero" clip-path="url(#6fe4a14a2a)"><path style=" stroke:none;fill-rule:evenodd;fill:#9facba;fill-opacity:1;" d="M 143.570312 229.382812 C 146.347656 241.121094 139.027344 252.972656 127.285156 255.757812 L 124.613281 244.488281 C 130.132812 243.179688 133.597656 237.570312 132.292969 232.054688 L 131.457031 228.535156 L 124.695312 230.136719 C 124.457031 230.195312 124.222656 230.121094 124.054688 229.941406 C 123.890625 229.761719 123.835938 229.523438 123.910156 229.289062 L 134.5 196.4375 C 134.59375 196.148438 134.855469 195.964844 135.160156 195.976562 C 135.460938 195.988281 135.707031 196.195312 135.777344 196.488281 C 138.375 207.453125 140.972656 218.417969 143.570312 229.382812 Z M 143.570312 229.382812 "/></g></g></g></g><g clip-rule="nonzero" clip-path="url(#ad45a55f23)"><g clip-rule="nonzero" clip-path="url(#28cbcba0b4)"><g clip-rule="nonzero" clip-path="url(#b647fc3c9b)"><g clip-rule="nonzero" clip-path="url(#ec182deb1d)"><path style=" stroke:none;fill-rule:evenodd;fill:#8d9ca8;fill-opacity:1;" d="M 143.570312 229.382812 C 146.347656 241.121094 139.027344 252.972656 127.285156 255.757812 L 127.25 255.613281 C 137.5625 251.882812 143.707031 240.875 141.121094 229.964844 L 133.742188 198.796875 L 134.5 196.4375 C 134.59375 196.148438 134.855469 195.964844 135.160156 195.976562 C 135.460938 195.988281 135.707031 196.195312 135.777344 196.488281 C 138.375 207.453125 140.972656 218.417969 143.570312 229.382812 Z M 143.570312 229.382812 "/></g></g></g></g><g clip-rule="nonzero" clip-path="url(#0bbf58d251)"><g clip-rule="nonzero" clip-path="url(#ef6913447a)"><g clip-rule="nonzero" clip-path="url(#dee6fbe300)"><g clip-rule="nonzero" clip-path="url(#2c18acebd6)"><path style=" stroke:none;fill-rule:evenodd;fill:#000000;fill-opacity:1;" d="M 211.40625 309.507812 C 212.089844 309.347656 212.75 309.085938 213.324219 308.75 L 148.738281 278.441406 L 138.042969 293.539062 C 137.660156 294.085938 137.089844 294.445312 136.480469 294.589844 C 135.875 294.734375 135.214844 294.664062 134.628906 294.347656 L 118.296875 285.652344 L 74.152344 341.714844 C 74.832031 341.75 75.523438 341.691406 76.222656 341.527344 Z M 113.550781 283.121094 L 69.195312 339.449219 C 68.320312 338.53125 67.664062 337.382812 67.351562 336.066406 L 47.296875 251.390625 C 47.011719 250.195312 47.050781 248.996094 47.332031 247.882812 Z M 52.773438 242.527344 L 122.164062 226.09375 L 121.039062 229.59375 C 120.742188 230.503906 120.960938 231.503906 121.609375 232.203125 C 122.257812 232.90625 123.238281 233.199219 124.164062 232.980469 L 129.488281 231.71875 L 129.710938 232.667969 C 130.472656 235.882812 129.089844 239.113281 126.472656 240.84375 L 126.402344 240.535156 C 126.066406 239.113281 124.636719 238.230469 123.210938 238.570312 C 121.789062 238.90625 120.90625 240.335938 121.246094 241.757812 L 125.496094 259.707031 C 125.832031 261.128906 127.257812 262.007812 128.683594 261.671875 C 130.109375 261.332031 130.988281 259.90625 130.652344 258.484375 L 130.4375 257.582031 C 142.117188 253.453125 149.066406 241.074219 146.152344 228.773438 L 144.277344 220.855469 L 187.960938 210.511719 C 188.808594 210.308594 189.664062 210.265625 190.488281 210.363281 L 135.058594 288.582031 L 50.433594 243.535156 C 51.140625 243.074219 51.925781 242.730469 52.773438 242.527344 Z M 94.179688 199.570312 L 100.390625 225.808594 L 106.503906 224.363281 L 100.289062 198.125 C 100.074219 197.207031 100.359375 196.25 101.039062 195.601562 C 103.296875 193.441406 104.25 190.222656 103.53125 187.195312 C 102.410156 182.464844 97.648438 179.53125 92.917969 180.652344 C 88.183594 181.773438 85.257812 186.527344 86.378906 191.257812 C 87.09375 194.285156 89.390625 196.738281 92.378906 197.652344 C 93.277344 197.929688 93.960938 198.65625 94.179688 199.570312 Z M 127.523438 226.746094 L 130.847656 225.957031 C 132.273438 225.621094 133.699219 226.503906 134.035156 227.921875 L 134.867188 231.445312 C 136.308594 237.523438 133.191406 243.636719 127.742188 246.1875 L 129.207031 252.386719 C 138.039062 248.964844 143.238281 239.453125 140.996094 229.996094 L 134.84375 204.019531 Z M 195.210938 212.855469 C 195.976562 213.722656 196.53125 214.78125 196.816406 215.976562 L 216.871094 300.652344 C 217.179688 301.96875 217.109375 303.292969 216.742188 304.5 L 151.847656 274.050781 Z M 201.972656 214.757812 L 222.027344 299.429688 C 223.632812 306.21875 219.421875 313.050781 212.625 314.660156 L 77.441406 346.679688 C 70.648438 348.289062 63.800781 344.074219 62.195312 337.289062 L 42.140625 252.613281 C 40.53125 245.824219 44.757812 238.984375 51.554688 237.375 L 95.234375 227.03125 L 89.347656 202.167969 C 85.292969 200.410156 82.25 196.8125 81.222656 192.480469 C 79.429688 184.910156 84.128906 177.292969 91.695312 175.503906 C 99.28125 173.707031 106.894531 178.402344 108.6875 185.972656 C 109.714844 190.3125 108.605469 194.890625 105.773438 198.277344 L 111.660156 223.140625 L 124.066406 220.203125 L 132.71875 193.359375 C 133.078125 192.230469 134.148438 191.484375 135.34375 191.527344 C 136.527344 191.574219 137.539062 192.40625 137.8125 193.566406 L 143.058594 215.703125 L 186.738281 205.359375 C 193.535156 203.75 200.363281 207.964844 201.972656 214.757812 Z M 91.335938 190.082031 C 90.867188 188.09375 92.105469 186.085938 94.09375 185.617188 C 96.09375 185.140625 98.101562 186.378906 98.574219 188.371094 C 99.042969 190.355469 97.804688 192.363281 95.800781 192.839844 C 93.816406 193.308594 91.808594 192.070312 91.335938 190.082031 Z M 91.335938 190.082031 "/></g></g></g></g><g clip-rule="nonzero" clip-path="url(#4d2bd06244)"><g clip-rule="nonzero" clip-path="url(#7c3370789b)"><g clip-rule="nonzero" clip-path="url(#79180ede1d)"><g clip-rule="nonzero" clip-path="url(#95b9801751)"><path style=" stroke:none;fill-rule:nonzero;fill:#000000;fill-opacity:1;" d="M 225.671875 104.695312 C 212.898438 100.355469 198.058594 98.890625 185.746094 105.597656 C 180.589844 108.367188 176.03125 112.550781 173.097656 117.671875 C 169.871094 123.289062 169.113281 129.820312 169.804688 136.273438 C 170.605469 143.121094 172.835938 149.792969 174.519531 156.398438 C 175.988281 162.222656 178.011719 169.6875 174.316406 175.117188 C 172.203125 178.21875 168.433594 179.871094 164.980469 181.125 C 161.425781 182.402344 157.613281 183.121094 153.765625 183.316406 C 146 183.839844 138.199219 182.683594 130.542969 181.277344 C 126.332031 180.519531 122.09375 179.664062 117.910156 179.007812 C 113.851562 178.417969 109.640625 177.664062 105.621094 178.011719 C 102.097656 178.230469 98.515625 179.410156 96.324219 182.21875 C 94.347656 184.652344 93.644531 187.898438 95.058594 190.785156 C 95.496094 191.613281 96.761719 190.847656 96.328125 190.019531 C 94.886719 187.035156 96.570312 183.519531 99.027344 181.695312 C 101.925781 179.539062 105.871094 179.316406 109.304688 179.546875 C 116.792969 179.941406 124.234375 181.722656 131.542969 183.011719 C 138.75 184.328125 146.101562 185.394531 153.351562 184.90625 C 159.984375 184.480469 167.484375 182.976562 172.785156 178.800781 C 177.671875 175.050781 178.371094 169.0625 177.539062 163.277344 C 176.597656 156.679688 174.351562 150.332031 172.71875 143.917969 C 171.1875 137.480469 170.164062 130.589844 171.988281 124.085938 C 173.578125 118.277344 177.378906 113.242188 182.195312 109.617188 C 194.628906 100.242188 211.164062 101.351562 225.203125 106.085938 C 226.148438 106.464844 226.617188 105.074219 225.671875 104.695312 Z M 225.671875 104.695312 "/></g></g></g></g><path style=" stroke:none;fill-rule:evenodd;fill:#ff4b07;fill-opacity:1;" d="M 268.550781 142.496094 L 278.609375 142.496094 C 281.429688 142.496094 283.6875 140.246094 283.6875 137.492188 C 283.6875 137.492188 283.6875 136.25 283.6875 136.25 C 288.738281 133.015625 292.074219 127.4375 292.074219 121.089844 C 292.074219 110.410156 282.648438 101.867188 271.484375 103.074219 C 262.921875 104 256.015625 110.882812 255.179688 119.269531 C 254.46875 126.363281 257.945312 132.710938 263.472656 136.25 C 263.472656 136.25 263.472656 137.492188 263.472656 137.492188 C 263.472656 140.246094 265.734375 142.496094 268.550781 142.496094 Z M 278.65625 139.050781 C 279.527344 139.027344 280.242188 138.347656 280.242188 137.492188 L 280.242188 135.28125 C 280.242188 134.65625 280.578125 134.085938 281.117188 133.78125 C 285.597656 131.242188 288.628906 126.519531 288.628906 121.089844 C 288.628906 112.410156 280.925781 105.519531 271.855469 106.5 C 264.910156 107.25 259.285156 112.8125 258.609375 119.613281 C 258.003906 125.652344 261.164062 131.015625 266.042969 133.78125 C 266.582031 134.085938 266.917969 134.660156 266.917969 135.28125 C 266.917969 135.28125 266.917969 137.492188 266.917969 137.492188 C 266.917969 138.347656 267.632812 139.027344 268.503906 139.050781 L 268.503906 135.851562 C 268.503906 134.902344 269.277344 134.128906 270.226562 134.128906 C 271.179688 134.128906 271.949219 134.902344 271.949219 135.851562 L 271.949219 139.050781 L 275.210938 139.050781 L 275.210938 135.851562 C 275.210938 134.902344 275.984375 134.128906 276.933594 134.128906 C 277.886719 134.128906 278.65625 134.902344 278.65625 135.851562 Z M 266.875 127.730469 C 269.675781 127.730469 271.949219 125.457031 271.949219 122.65625 L 271.949219 119.519531 C 271.949219 116.714844 269.675781 114.441406 266.875 114.441406 C 264.070312 114.441406 261.796875 116.714844 261.796875 119.519531 L 261.796875 122.65625 C 261.796875 125.457031 264.070312 127.730469 266.875 127.730469 Z M 280.289062 127.730469 C 283.09375 127.730469 285.367188 125.457031 285.367188 122.65625 C 285.367188 122.65625 285.367188 119.519531 285.367188 119.519531 C 285.367188 116.714844 283.09375 114.441406 280.289062 114.441406 C 277.488281 114.441406 275.210938 116.714844 275.210938 119.519531 C 275.210938 119.519531 275.210938 122.65625 275.210938 122.65625 C 275.210938 125.457031 277.488281 127.730469 280.289062 127.730469 Z M 266.875 124.285156 C 265.972656 124.285156 265.242188 123.554688 265.242188 122.65625 C 265.242188 122.65625 265.242188 119.519531 265.242188 119.519531 C 265.242188 118.621094 265.972656 117.886719 266.875 117.886719 C 267.773438 117.886719 268.503906 118.621094 268.503906 119.519531 C 268.503906 119.519531 268.503906 122.65625 268.503906 122.65625 C 268.503906 123.554688 267.773438 124.285156 266.875 124.285156 Z M 280.289062 124.285156 C 279.386719 124.285156 278.65625 123.554688 278.65625 122.65625 L 278.65625 119.519531 C 278.65625 118.621094 279.386719 117.890625 280.289062 117.890625 C 281.191406 117.890625 281.921875 118.621094 281.921875 119.519531 L 281.921875 122.65625 C 281.921875 123.554688 281.191406 124.285156 280.289062 124.285156 Z M 280.289062 124.285156 "/><g clip-rule="nonzero" clip-path="url(#c462543efc)"><path style=" stroke:none;fill-rule:evenodd;fill:#000000;fill-opacity:1;" d="M 316.726562 100.886719 C 317.953125 102.035156 318.613281 103.769531 318.289062 105.59375 L 312.199219 140.046875 C 311.765625 142.507812 309.648438 144.304688 307.167969 144.304688 L 239.992188 144.304688 C 237.515625 144.304688 235.398438 142.507812 234.960938 140.046875 L 228.875 105.59375 C 228.550781 103.75 229.222656 101.996094 230.476562 100.851562 C 231.175781 100.207031 231.222656 99.117188 230.582031 98.417969 C 229.9375 97.714844 228.847656 97.667969 228.148438 98.3125 C 226.070312 100.21875 224.941406 103.132812 225.480469 106.191406 C 225.480469 106.191406 231.570312 140.644531 231.570312 140.644531 C 232.296875 144.757812 235.851562 147.75 239.992188 147.75 C 239.992188 147.75 307.167969 147.75 307.167969 147.75 C 311.316406 147.75 314.867188 144.757812 315.59375 140.644531 C 315.59375 140.644531 321.679688 106.191406 321.679688 106.191406 C 322.21875 103.164062 321.117188 100.277344 319.078125 98.371094 C 318.386719 97.71875 317.296875 97.757812 316.644531 98.449219 C 315.996094 99.144531 316.03125 100.234375 316.726562 100.886719 Z M 247.128906 90.65625 C 244.550781 92.261719 242.425781 94.085938 240.859375 96.070312 L 235.683594 96.070312 C 234.730469 96.070312 233.960938 96.84375 233.960938 97.792969 C 233.960938 98.742188 234.730469 99.515625 235.683594 99.515625 L 311.035156 99.515625 C 311.984375 99.515625 312.757812 98.742188 312.757812 97.792969 C 312.757812 96.84375 311.984375 96.070312 311.035156 96.070312 L 306.300781 96.070312 C 304.738281 94.085938 302.613281 92.257812 300.035156 90.65625 L 308.585938 79.253906 C 315.210938 70.425781 312.914062 57.824219 303.601562 51.898438 L 287.210938 41.46875 C 283.136719 38.875 278.40625 37.5 273.582031 37.5 C 268.753906 37.5 264.027344 38.875 259.953125 41.46875 L 243.5625 51.898438 C 234.25 57.824219 231.953125 70.425781 238.574219 79.253906 Z M 301.609375 96.070312 L 245.554688 96.070312 C 251.269531 90.847656 261.703125 87.457031 273.582031 87.457031 C 285.460938 87.457031 295.894531 90.847656 301.613281 96.070312 Z M 293.867188 62.789062 C 294.121094 64.082031 294.253906 65.417969 294.253906 66.785156 C 294.253906 74.535156 289.980469 81.296875 283.660156 84.832031 C 288.648438 85.667969 293.175781 87.105469 296.992188 88.976562 C 297.015625 88.945312 297.035156 88.914062 297.058594 88.882812 C 297.058594 88.882812 305.832031 77.1875 305.832031 77.1875 C 307.089844 75.507812 307.953125 73.664062 308.445312 71.757812 C 303.582031 67.984375 298.726562 64.992188 293.867188 62.789062 Z M 253.296875 62.789062 C 248.4375 64.992188 243.578125 67.984375 238.714844 71.757812 C 239.207031 73.664062 240.070312 75.507812 241.332031 77.1875 L 250.171875 88.976562 C 253.988281 87.101562 258.515625 85.667969 263.5 84.835938 C 257.183594 81.296875 252.910156 74.535156 252.910156 66.785156 C 252.910156 65.417969 253.042969 64.082031 253.296875 62.789062 Z M 290.378906 70.613281 C 279.183594 74.691406 267.976562 74.691406 256.78125 70.613281 C 258.523438 78.28125 265.390625 84.011719 273.582031 84.011719 C 281.773438 84.011719 288.636719 78.28125 290.378906 70.613281 Z M 308.933594 67.804688 C 308.898438 62.730469 306.390625 57.757812 301.75 54.804688 L 285.359375 44.375 C 281.839844 42.136719 277.753906 40.945312 273.582031 40.945312 C 269.410156 40.945312 265.320312 42.136719 261.800781 44.375 C 261.800781 44.375 245.414062 54.804688 245.414062 54.804688 C 240.773438 57.757812 238.261719 62.730469 238.230469 67.804688 C 250.015625 59.0625 261.8125 54.730469 273.59375 54.734375 C 285.367188 54.738281 297.152344 59.070312 308.933594 67.804688 Z M 289.863281 61.152344 C 284.441406 59.175781 279.019531 58.183594 273.59375 58.179688 C 268.160156 58.179688 262.726562 59.171875 257.296875 61.152344 C 257.105469 61.707031 256.941406 62.273438 256.804688 62.851562 C 267.988281 66.890625 279.171875 66.890625 290.355469 62.851562 C 290.21875 62.273438 290.058594 61.707031 289.863281 61.152344 Z M 289.863281 61.152344 "/></g></g></svg>