<svg xmlns="http://www.w3.org/2000/svg" xmlns:xlink="http://www.w3.org/1999/xlink" width="200" zoomAndPan="magnify" viewBox="0 0 150 37.5" height="50" preserveAspectRatio="xMidYMid meet" version="1.2"><defs><clipPath id="b1990fb417"><path d="M 137.375 23.929688 L 146.257812 23.929688 L 146.257812 34 L 137.375 34 Z M 137.375 23.929688 "/></clipPath><clipPath id="fffdac4c89"><path d="M 53 12 L 75 12 L 75 28 L 53 28 Z M 53 12 "/></clipPath><clipPath id="98c4ceaf77"><path d="M 70.933594 31.242188 L 49.226562 20.039062 L 53.300781 12.144531 L 75.003906 23.347656 Z M 70.933594 31.242188 "/></clipPath><clipPath id="3a566ba2f1"><path d="M 70.933594 31.242188 L 49.226562 20.039062 L 53.300781 12.144531 L 75.003906 23.347656 Z M 70.933594 31.242188 "/></clipPath><clipPath id="8dd26bd104"><path d="M 53 10 L 75 10 L 75 27 L 53 27 Z M 53 10 "/></clipPath><clipPath id="f68cb69bc4"><path d="M 70.53125 30.386719 L 49.226562 18.441406 L 53.570312 10.695312 L 74.875 22.640625 Z M 70.53125 30.386719 "/></clipPath><clipPath id="589e654bd8"><path d="M 70.53125 30.386719 L 49.226562 18.441406 L 53.570312 10.695312 L 74.875 22.640625 Z M 70.53125 30.386719 "/></clipPath><clipPath id="cd90656fe6"><path d="M 53 10 L 76 10 L 76 26 L 53 26 Z M 53 10 "/></clipPath><clipPath id="45e7e99e6a"><path d="M 71.242188 29.671875 L 49.519531 18.507812 L 53.578125 10.609375 L 75.300781 21.769531 Z M 71.242188 29.671875 "/></clipPath><clipPath id="a7c282c80b"><path d="M 71.242188 29.671875 L 49.519531 18.507812 L 53.578125 10.609375 L 75.300781 21.769531 Z M 71.242188 29.671875 "/></clipPath><clipPath id="9a9c0fc977"><path d="M 74.128906 1.351562 L 85.96875 1.351562 L 85.96875 16.15625 L 74.128906 16.15625 Z M 74.128906 1.351562 "/></clipPath></defs><g id="469d912d50"><g style="fill:#ff3131;fill-opacity:1;"><g transform="translate(0.986842, 24.695727)"><path style="stroke:none" d="M 6.609375 -11.734375 C 7.691406 -11.734375 8.632812 -11.550781 9.4375 -11.1875 C 10.238281 -10.832031 10.859375 -10.320312 11.296875 -9.65625 C 11.734375 -8.988281 11.953125 -8.207031 11.953125 -7.3125 C 11.953125 -6.414062 11.734375 -5.628906 11.296875 -4.953125 C 10.859375 -4.285156 10.238281 -3.773438 9.4375 -3.421875 C 8.632812 -3.066406 7.691406 -2.890625 6.609375 -2.890625 L 4.90625 -2.890625 L 4.90625 0 L 0.953125 0 L 0.953125 -11.734375 Z M 6.359375 -5.9375 C 6.890625 -5.9375 7.289062 -6.054688 7.5625 -6.296875 C 7.832031 -6.535156 7.96875 -6.875 7.96875 -7.3125 C 7.96875 -7.75 7.832031 -8.085938 7.5625 -8.328125 C 7.289062 -8.566406 6.890625 -8.6875 6.359375 -8.6875 L 4.90625 -8.6875 L 4.90625 -5.9375 Z M 6.359375 -5.9375 "/></g></g><g style="fill:#ff3131;fill-opacity:1;"><g transform="translate(12.741287, 24.695727)"><path style="stroke:none" d="M 7.203125 -9.34375 C 8.335938 -9.34375 9.25 -9 9.9375 -8.3125 C 10.625 -7.632812 10.96875 -6.609375 10.96875 -5.234375 L 10.96875 0 L 7.171875 0 L 7.171875 -4.578125 C 7.171875 -5.628906 6.796875 -6.15625 6.046875 -6.15625 C 5.628906 -6.15625 5.285156 -6.003906 5.015625 -5.703125 C 4.753906 -5.410156 4.625 -4.945312 4.625 -4.3125 L 4.625 0 L 0.84375 0 L 0.84375 -12.4375 L 4.625 -12.4375 L 4.625 -8.4375 C 5.332031 -9.039062 6.191406 -9.34375 7.203125 -9.34375 Z M 7.203125 -9.34375 "/></g></g><g style="fill:#ff3131;fill-opacity:1;"><g transform="translate(23.808216, 24.695727)"><path style="stroke:none" d="M 0.84375 -9.171875 L 4.625 -9.171875 L 4.625 0 L 0.84375 0 Z M 2.734375 -9.90625 C 2.054688 -9.90625 1.503906 -10.085938 1.078125 -10.453125 C 0.660156 -10.816406 0.453125 -11.28125 0.453125 -11.84375 C 0.453125 -12.394531 0.660156 -12.851562 1.078125 -13.21875 C 1.503906 -13.582031 2.054688 -13.765625 2.734375 -13.765625 C 3.429688 -13.765625 3.984375 -13.585938 4.390625 -13.234375 C 4.804688 -12.890625 5.015625 -12.445312 5.015625 -11.90625 C 5.015625 -11.320312 4.804688 -10.84375 4.390625 -10.46875 C 3.984375 -10.09375 3.429688 -9.90625 2.734375 -9.90625 Z M 2.734375 -9.90625 "/></g></g><g style="fill:#ff3131;fill-opacity:1;"><g transform="translate(28.57017, 24.695727)"><path style="stroke:none" d="M 4.421875 0.171875 C 3.640625 0.171875 2.867188 0.0859375 2.109375 -0.078125 C 1.347656 -0.242188 0.734375 -0.460938 0.265625 -0.734375 L 1.3125 -3.234375 C 1.726562 -2.972656 2.226562 -2.769531 2.8125 -2.625 C 3.394531 -2.488281 3.960938 -2.421875 4.515625 -2.421875 C 4.941406 -2.421875 5.242188 -2.453125 5.421875 -2.515625 C 5.597656 -2.585938 5.6875 -2.695312 5.6875 -2.84375 C 5.6875 -2.988281 5.578125 -3.085938 5.359375 -3.140625 C 5.140625 -3.203125 4.785156 -3.257812 4.296875 -3.3125 C 3.546875 -3.40625 2.90625 -3.519531 2.375 -3.65625 C 1.851562 -3.800781 1.394531 -4.070312 1 -4.46875 C 0.601562 -4.875 0.40625 -5.453125 0.40625 -6.203125 C 0.40625 -6.796875 0.582031 -7.328125 0.9375 -7.796875 C 1.289062 -8.265625 1.820312 -8.640625 2.53125 -8.921875 C 3.25 -9.203125 4.101562 -9.34375 5.09375 -9.34375 C 5.789062 -9.34375 6.46875 -9.273438 7.125 -9.140625 C 7.789062 -9.015625 8.359375 -8.828125 8.828125 -8.578125 L 7.796875 -6.078125 C 6.992188 -6.523438 6.109375 -6.75 5.140625 -6.75 C 4.316406 -6.75 3.90625 -6.609375 3.90625 -6.328125 C 3.90625 -6.179688 4.015625 -6.078125 4.234375 -6.015625 C 4.460938 -5.953125 4.816406 -5.890625 5.296875 -5.828125 C 6.046875 -5.742188 6.679688 -5.628906 7.203125 -5.484375 C 7.722656 -5.335938 8.179688 -5.0625 8.578125 -4.65625 C 8.972656 -4.257812 9.171875 -3.6875 9.171875 -2.9375 C 9.171875 -2.363281 8.988281 -1.84375 8.625 -1.375 C 8.269531 -0.90625 7.734375 -0.53125 7.015625 -0.25 C 6.304688 0.03125 5.441406 0.171875 4.421875 0.171875 Z M 4.421875 0.171875 "/></g></g><g style="fill:#ff3131;fill-opacity:1;"><g transform="translate(37.339808, 24.695727)"><path style="stroke:none" d="M 7.203125 -9.34375 C 8.335938 -9.34375 9.25 -9 9.9375 -8.3125 C 10.625 -7.632812 10.96875 -6.609375 10.96875 -5.234375 L 10.96875 0 L 7.171875 0 L 7.171875 -4.578125 C 7.171875 -5.628906 6.796875 -6.15625 6.046875 -6.15625 C 5.628906 -6.15625 5.285156 -6.003906 5.015625 -5.703125 C 4.753906 -5.410156 4.625 -4.945312 4.625 -4.3125 L 4.625 0 L 0.84375 0 L 0.84375 -12.4375 L 4.625 -12.4375 L 4.625 -8.4375 C 5.332031 -9.039062 6.191406 -9.34375 7.203125 -9.34375 Z M 7.203125 -9.34375 "/></g></g><g style="fill:#ff3131;fill-opacity:1;"><g transform="translate(48.406737, 24.695727)"><path style="stroke:none" d="M 0.84375 -9.171875 L 4.625 -9.171875 L 4.625 0 L 0.84375 0 Z M 2.734375 -9.90625 C 2.054688 -9.90625 1.503906 -10.085938 1.078125 -10.453125 C 0.660156 -10.816406 0.453125 -11.28125 0.453125 -11.84375 C 0.453125 -12.394531 0.660156 -12.851562 1.078125 -13.21875 C 1.503906 -13.582031 2.054688 -13.765625 2.734375 -13.765625 C 3.429688 -13.765625 3.984375 -13.585938 4.390625 -13.234375 C 4.804688 -12.890625 5.015625 -12.445312 5.015625 -11.90625 C 5.015625 -11.320312 4.804688 -10.84375 4.390625 -10.46875 C 3.984375 -10.09375 3.429688 -9.90625 2.734375 -9.90625 Z M 2.734375 -9.90625 "/></g></g><g style="fill:#ff3131;fill-opacity:1;"><g transform="translate(53.168691, 24.695727)"><path style="stroke:none" d="M 7.203125 -9.34375 C 8.335938 -9.34375 9.25 -9 9.9375 -8.3125 C 10.625 -7.632812 10.96875 -6.609375 10.96875 -5.234375 L 10.96875 0 L 7.171875 0 L 7.171875 -4.578125 C 7.171875 -5.628906 6.796875 -6.15625 6.046875 -6.15625 C 5.628906 -6.15625 5.285156 -6.003906 5.015625 -5.703125 C 4.753906 -5.410156 4.625 -4.945312 4.625 -4.3125 L 4.625 0 L 0.84375 0 L 0.84375 -9.171875 L 4.4375 -9.171875 L 4.4375 -8.265625 C 4.800781 -8.617188 5.21875 -8.882812 5.6875 -9.0625 C 6.15625 -9.25 6.660156 -9.34375 7.203125 -9.34375 Z M 7.203125 -9.34375 "/></g></g><g style="fill:#ff3131;fill-opacity:1;"><g transform="translate(64.403329, 24.695727)"><path style="stroke:none" d="M 11.078125 -9.171875 L 11.078125 -1.828125 C 11.078125 -0.0859375 10.59375 1.21875 9.625 2.09375 C 8.664062 2.976562 7.289062 3.421875 5.5 3.421875 C 4.582031 3.421875 3.726562 3.320312 2.9375 3.125 C 2.144531 2.925781 1.46875 2.644531 0.90625 2.28125 L 2.171875 -0.296875 C 2.535156 -0.0351562 2.988281 0.175781 3.53125 0.34375 C 4.082031 0.519531 4.609375 0.609375 5.109375 0.609375 C 5.867188 0.609375 6.421875 0.441406 6.765625 0.109375 C 7.117188 -0.210938 7.296875 -0.6875 7.296875 -1.3125 L 7.296875 -1.46875 C 6.722656 -0.820312 5.878906 -0.5 4.765625 -0.5 C 3.984375 -0.5 3.253906 -0.679688 2.578125 -1.046875 C 1.898438 -1.410156 1.359375 -1.929688 0.953125 -2.609375 C 0.554688 -3.285156 0.359375 -4.054688 0.359375 -4.921875 C 0.359375 -5.796875 0.554688 -6.566406 0.953125 -7.234375 C 1.359375 -7.910156 1.898438 -8.429688 2.578125 -8.796875 C 3.253906 -9.160156 3.984375 -9.34375 4.765625 -9.34375 C 6.015625 -9.34375 6.921875 -8.9375 7.484375 -8.125 L 7.484375 -9.171875 Z M 5.765625 -3.453125 C 6.210938 -3.453125 6.582031 -3.585938 6.875 -3.859375 C 7.175781 -4.140625 7.328125 -4.492188 7.328125 -4.921875 C 7.328125 -5.359375 7.175781 -5.710938 6.875 -5.984375 C 6.582031 -6.253906 6.210938 -6.390625 5.765625 -6.390625 C 5.304688 -6.390625 4.925781 -6.253906 4.625 -5.984375 C 4.332031 -5.710938 4.1875 -5.359375 4.1875 -4.921875 C 4.1875 -4.492188 4.335938 -4.140625 4.640625 -3.859375 C 4.941406 -3.585938 5.316406 -3.453125 5.765625 -3.453125 Z M 5.765625 -3.453125 "/></g></g><g style="fill:#ffffff;fill-opacity:1;"><g transform="translate(86.768089, 25.337176)"><path style="stroke:none" d="M 9.453125 -4.21875 C 9.453125 -4.1875 9.4375 -3.960938 9.40625 -3.546875 L 2.984375 -3.546875 C 3.097656 -3.023438 3.367188 -2.609375 3.796875 -2.296875 C 4.234375 -1.992188 4.769531 -1.84375 5.40625 -1.84375 C 5.851562 -1.84375 6.242188 -1.90625 6.578125 -2.03125 C 6.921875 -2.164062 7.242188 -2.378906 7.546875 -2.671875 L 8.859375 -1.25 C 8.054688 -0.332031 6.882812 0.125 5.34375 0.125 C 4.382812 0.125 3.535156 -0.0625 2.796875 -0.4375 C 2.066406 -0.8125 1.5 -1.328125 1.09375 -1.984375 C 0.695312 -2.648438 0.5 -3.40625 0.5 -4.25 C 0.5 -5.070312 0.695312 -5.816406 1.09375 -6.484375 C 1.488281 -7.160156 2.03125 -7.679688 2.71875 -8.046875 C 3.40625 -8.421875 4.175781 -8.609375 5.03125 -8.609375 C 5.863281 -8.609375 6.613281 -8.429688 7.28125 -8.078125 C 7.957031 -7.722656 8.488281 -7.210938 8.875 -6.546875 C 9.257812 -5.878906 9.453125 -5.101562 9.453125 -4.21875 Z M 5.046875 -6.75 C 4.492188 -6.75 4.023438 -6.59375 3.640625 -6.28125 C 3.265625 -5.96875 3.035156 -5.535156 2.953125 -4.984375 L 7.140625 -4.984375 C 7.046875 -5.523438 6.8125 -5.953125 6.4375 -6.265625 C 6.0625 -6.585938 5.597656 -6.75 5.046875 -6.75 Z M 5.046875 -6.75 "/></g></g><g style="fill:#ffffff;fill-opacity:1;"><g transform="translate(96.728852, 25.337176)"><path style="stroke:none" d="M 6.609375 -0.40625 C 6.367188 -0.226562 6.070312 -0.09375 5.71875 0 C 5.363281 0.0820312 4.992188 0.125 4.609375 0.125 C 3.597656 0.125 2.816406 -0.128906 2.265625 -0.640625 C 1.710938 -1.160156 1.4375 -1.921875 1.4375 -2.921875 L 1.4375 -6.40625 L 0.125 -6.40625 L 0.125 -8.296875 L 1.4375 -8.296875 L 1.4375 -10.375 L 3.890625 -10.375 L 3.890625 -8.296875 L 6.015625 -8.296875 L 6.015625 -6.40625 L 3.890625 -6.40625 L 3.890625 -2.953125 C 3.890625 -2.597656 3.984375 -2.320312 4.171875 -2.125 C 4.359375 -1.925781 4.617188 -1.828125 4.953125 -1.828125 C 5.347656 -1.828125 5.679688 -1.929688 5.953125 -2.140625 Z M 6.609375 -0.40625 "/></g></g><g style="fill:#ffffff;fill-opacity:1;"><g transform="translate(103.327244, 25.337176)"><path style="stroke:none" d="M 9.453125 -4.21875 C 9.453125 -4.1875 9.4375 -3.960938 9.40625 -3.546875 L 2.984375 -3.546875 C 3.097656 -3.023438 3.367188 -2.609375 3.796875 -2.296875 C 4.234375 -1.992188 4.769531 -1.84375 5.40625 -1.84375 C 5.851562 -1.84375 6.242188 -1.90625 6.578125 -2.03125 C 6.921875 -2.164062 7.242188 -2.378906 7.546875 -2.671875 L 8.859375 -1.25 C 8.054688 -0.332031 6.882812 0.125 5.34375 0.125 C 4.382812 0.125 3.535156 -0.0625 2.796875 -0.4375 C 2.066406 -0.8125 1.5 -1.328125 1.09375 -1.984375 C 0.695312 -2.648438 0.5 -3.40625 0.5 -4.25 C 0.5 -5.070312 0.695312 -5.816406 1.09375 -6.484375 C 1.488281 -7.160156 2.03125 -7.679688 2.71875 -8.046875 C 3.40625 -8.421875 4.175781 -8.609375 5.03125 -8.609375 C 5.863281 -8.609375 6.613281 -8.429688 7.28125 -8.078125 C 7.957031 -7.722656 8.488281 -7.210938 8.875 -6.546875 C 9.257812 -5.878906 9.453125 -5.101562 9.453125 -4.21875 Z M 5.046875 -6.75 C 4.492188 -6.75 4.023438 -6.59375 3.640625 -6.28125 C 3.265625 -5.96875 3.035156 -5.535156 2.953125 -4.984375 L 7.140625 -4.984375 C 7.046875 -5.523438 6.8125 -5.953125 6.4375 -6.265625 C 6.0625 -6.585938 5.597656 -6.75 5.046875 -6.75 Z M 5.046875 -6.75 "/></g></g><g style="fill:#ffffff;fill-opacity:1;"><g transform="translate(113.288008, 25.337176)"><path style="stroke:none" d="M 5.234375 0.125 C 4.328125 0.125 3.515625 -0.0625 2.796875 -0.4375 C 2.078125 -0.8125 1.515625 -1.328125 1.109375 -1.984375 C 0.703125 -2.648438 0.5 -3.40625 0.5 -4.25 C 0.5 -5.082031 0.703125 -5.832031 1.109375 -6.5 C 1.515625 -7.164062 2.078125 -7.679688 2.796875 -8.046875 C 3.515625 -8.421875 4.328125 -8.609375 5.234375 -8.609375 C 6.128906 -8.609375 6.910156 -8.421875 7.578125 -8.046875 C 8.242188 -7.679688 8.734375 -7.148438 9.046875 -6.453125 L 7.140625 -5.421875 C 6.691406 -6.203125 6.050781 -6.59375 5.21875 -6.59375 C 4.582031 -6.59375 4.050781 -6.378906 3.625 -5.953125 C 3.207031 -5.535156 3 -4.96875 3 -4.25 C 3 -3.519531 3.207031 -2.941406 3.625 -2.515625 C 4.050781 -2.097656 4.582031 -1.890625 5.21875 -1.890625 C 6.0625 -1.890625 6.703125 -2.28125 7.140625 -3.0625 L 9.046875 -2.015625 C 8.734375 -1.347656 8.242188 -0.820312 7.578125 -0.4375 C 6.910156 -0.0625 6.128906 0.125 5.234375 0.125 Z M 5.234375 0.125 "/></g></g><g style="fill:#ffffff;fill-opacity:1;"><g transform="translate(122.743636, 25.337176)"><path style="stroke:none" d="M 6.609375 -0.40625 C 6.367188 -0.226562 6.070312 -0.09375 5.71875 0 C 5.363281 0.0820312 4.992188 0.125 4.609375 0.125 C 3.597656 0.125 2.816406 -0.128906 2.265625 -0.640625 C 1.710938 -1.160156 1.4375 -1.921875 1.4375 -2.921875 L 1.4375 -6.40625 L 0.125 -6.40625 L 0.125 -8.296875 L 1.4375 -8.296875 L 1.4375 -10.375 L 3.890625 -10.375 L 3.890625 -8.296875 L 6.015625 -8.296875 L 6.015625 -6.40625 L 3.890625 -6.40625 L 3.890625 -2.953125 C 3.890625 -2.597656 3.984375 -2.320312 4.171875 -2.125 C 4.359375 -1.925781 4.617188 -1.828125 4.953125 -1.828125 C 5.347656 -1.828125 5.679688 -1.929688 5.953125 -2.140625 Z M 6.609375 -0.40625 "/></g></g><g style="fill:#ffffff;fill-opacity:1;"><g transform="translate(129.342028, 25.337176)"><path style="stroke:none" d="M 5.171875 0.125 C 4.273438 0.125 3.472656 -0.0625 2.765625 -0.4375 C 2.054688 -0.8125 1.5 -1.328125 1.09375 -1.984375 C 0.695312 -2.648438 0.5 -3.40625 0.5 -4.25 C 0.5 -5.082031 0.695312 -5.832031 1.09375 -6.5 C 1.5 -7.164062 2.054688 -7.679688 2.765625 -8.046875 C 3.472656 -8.421875 4.273438 -8.609375 5.171875 -8.609375 C 6.066406 -8.609375 6.863281 -8.421875 7.5625 -8.046875 C 8.269531 -7.679688 8.820312 -7.164062 9.21875 -6.5 C 9.625 -5.832031 9.828125 -5.082031 9.828125 -4.25 C 9.828125 -3.40625 9.625 -2.648438 9.21875 -1.984375 C 8.820312 -1.328125 8.269531 -0.8125 7.5625 -0.4375 C 6.863281 -0.0625 6.066406 0.125 5.171875 0.125 Z M 5.171875 -1.890625 C 5.804688 -1.890625 6.328125 -2.101562 6.734375 -2.53125 C 7.140625 -2.957031 7.34375 -3.53125 7.34375 -4.25 C 7.34375 -4.957031 7.140625 -5.523438 6.734375 -5.953125 C 6.328125 -6.378906 5.804688 -6.59375 5.171875 -6.59375 C 4.546875 -6.59375 4.023438 -6.378906 3.609375 -5.953125 C 3.203125 -5.523438 3 -4.957031 3 -4.25 C 3 -3.53125 3.203125 -2.957031 3.609375 -2.53125 C 4.023438 -2.101562 4.546875 -1.890625 5.171875 -1.890625 Z M 5.171875 -1.890625 "/></g></g><g style="fill:#ffffff;fill-opacity:1;"><g transform="translate(139.681644, 25.337176)"><path style="stroke:none" d="M 3.484375 -7.375 C 3.773438 -7.78125 4.171875 -8.085938 4.671875 -8.296875 C 5.171875 -8.503906 5.75 -8.609375 6.40625 -8.609375 L 6.40625 -6.34375 C 6.132812 -6.363281 5.953125 -6.375 5.859375 -6.375 C 5.148438 -6.375 4.59375 -6.175781 4.1875 -5.78125 C 3.789062 -5.382812 3.59375 -4.796875 3.59375 -4.015625 L 3.59375 0 L 1.140625 0 L 1.140625 -8.484375 L 3.484375 -8.484375 Z M 3.484375 -7.375 "/></g></g><g clip-rule="nonzero" clip-path="url(#b1990fb417)"><path style=" stroke:none;fill-rule:nonzero;fill:#ffffff;fill-opacity:1;" d="M 137.726562 28.476562 C 137.707031 28.492188 137.691406 28.507812 137.675781 28.53125 C 137.492188 28.710938 137.386719 28.960938 137.386719 29.222656 L 137.386719 32.894531 C 137.386719 33.441406 137.832031 33.886719 138.375 33.886719 L 145.082031 33.886719 C 145.628906 33.886719 146.074219 33.441406 146.074219 32.894531 L 146.074219 29.222656 C 146.074219 28.960938 145.96875 28.710938 145.78125 28.53125 C 145.765625 28.507812 145.753906 28.492188 145.734375 28.476562 C 145.554688 28.320312 145.324219 28.234375 145.082031 28.234375 L 143.871094 28.234375 C 143.863281 28.464844 143.820312 28.6875 143.742188 28.890625 C 143.511719 29.527344 142.992188 30.023438 142.339844 30.214844 C 142.242188 30.457031 142.007812 30.625 141.730469 30.625 C 141.367188 30.625 141.070312 30.328125 141.070312 29.96875 L 141.070312 29.324219 C 141.070312 29.160156 141.128906 29.011719 141.230469 28.890625 C 141.351562 28.753906 141.53125 28.664062 141.730469 28.664062 C 141.90625 28.664062 142.066406 28.734375 142.183594 28.847656 C 142.386719 28.714844 142.527344 28.488281 142.550781 28.234375 L 140.578125 28.234375 C 140.578125 28.207031 140.574219 28.183594 140.574219 28.160156 C 140.574219 27.683594 140.875 27.246094 141.320312 27.078125 C 141.761719 26.914062 142.058594 26.488281 142.058594 26.023438 L 142.058594 25.851562 C 142.367188 25.722656 142.582031 25.417969 142.582031 25.066406 L 142.582031 24.84375 C 142.582031 24.375 142.199219 23.992188 141.730469 23.992188 C 141.257812 23.992188 140.878906 24.375 140.878906 24.84375 L 140.878906 25.066406 C 140.878906 25.417969 141.09375 25.722656 141.398438 25.851562 L 141.398438 26.023438 C 141.398438 26.21875 141.277344 26.390625 141.089844 26.460938 C 140.386719 26.726562 139.914062 27.410156 139.914062 28.160156 C 139.914062 28.183594 139.917969 28.207031 139.917969 28.234375 L 138.375 28.234375 C 138.132812 28.234375 137.902344 28.320312 137.726562 28.476562 Z M 141.535156 24.84375 C 141.535156 24.738281 141.621094 24.652344 141.730469 24.652344 C 141.835938 24.652344 141.921875 24.738281 141.921875 24.84375 L 141.921875 25.066406 C 141.921875 25.171875 141.835938 25.257812 141.730469 25.257812 C 141.621094 25.257812 141.535156 25.171875 141.535156 25.066406 Z M 141.152344 31.433594 C 141.324219 31.558594 141.527344 31.621094 141.730469 31.621094 C 141.929688 31.621094 142.132812 31.558594 142.304688 31.433594 L 145.410156 29.203125 C 145.414062 29.207031 145.414062 32.894531 145.414062 32.894531 C 145.414062 33.078125 145.265625 33.226562 145.082031 33.226562 L 138.375 33.226562 C 138.195312 33.226562 138.046875 33.078125 138.046875 32.894531 C 138.046875 32.894531 138.046875 29.207031 138.046875 29.203125 Z M 141.152344 31.433594 "/></g><path style=" stroke:none;fill-rule:nonzero;fill:#ffffff;fill-opacity:1;" d="M 142.621094 28.890625 C 142.546875 28.984375 142.457031 29.058594 142.359375 29.125 C 142.265625 29.1875 142.160156 29.234375 142.050781 29.269531 C 142.027344 29.109375 141.890625 28.996094 141.730469 28.996094 C 141.546875 28.996094 141.398438 29.140625 141.398438 29.324219 L 141.398438 29.96875 C 141.398438 30.148438 141.546875 30.296875 141.730469 30.296875 C 141.910156 30.296875 142.058594 30.148438 142.058594 29.96875 L 142.058594 29.945312 C 142.175781 29.921875 142.28125 29.890625 142.386719 29.847656 C 142.832031 29.675781 143.195312 29.328125 143.386719 28.890625 C 143.476562 28.691406 143.53125 28.464844 143.539062 28.234375 C 143.542969 28.210938 143.542969 28.183594 143.542969 28.160156 C 143.542969 27.875 143.476562 27.589844 143.34375 27.335938 C 143.261719 27.171875 143.066406 27.109375 142.902344 27.191406 C 142.738281 27.273438 142.675781 27.472656 142.757812 27.636719 C 142.84375 27.796875 142.882812 27.976562 142.882812 28.160156 C 142.882812 28.183594 142.882812 28.210938 142.878906 28.234375 C 142.867188 28.480469 142.769531 28.710938 142.621094 28.890625 Z M 142.621094 28.890625 "/><g clip-rule="nonzero" clip-path="url(#fffdac4c89)"><g clip-rule="nonzero" clip-path="url(#98c4ceaf77)"><g clip-rule="nonzero" clip-path="url(#3a566ba2f1)"><path style=" stroke:none;fill-rule:nonzero;fill:#ff3131;fill-opacity:1;" d="M 74.972656 23.40625 L 74.960938 23.410156 C 73.847656 24.066406 72.671875 24.621094 71.425781 25.066406 C 70.234375 25.472656 69 25.714844 67.726562 25.785156 C 65.113281 25.894531 62.71875 25.335938 60.539062 24.117188 C 59.3125 23.460938 58.28125 22.714844 57.445312 21.878906 C 56.90625 21.386719 56.269531 20.597656 55.527344 19.515625 C 54.847656 18.457031 54.316406 17.292969 53.933594 16.027344 C 53.574219 14.714844 53.339844 13.464844 53.234375 12.28125 C 52.734375 14.867188 53.164062 17.457031 54.527344 20.042969 C 55.277344 21.402344 56.113281 22.503906 57.027344 23.359375 C 57.34375 23.660156 57.699219 23.972656 58.097656 24.296875 C 58.488281 24.621094 59.074219 25.011719 59.855469 25.46875 C 62.300781 26.769531 64.96875 27.253906 67.871094 26.921875 C 69.167969 26.773438 70.484375 26.386719 71.824219 25.761719 C 72.359375 25.515625 72.9375 25.175781 73.566406 24.738281 C 74.230469 24.269531 74.699219 23.824219 74.972656 23.40625 "/></g></g></g><g clip-rule="nonzero" clip-path="url(#8dd26bd104)"><g clip-rule="nonzero" clip-path="url(#f68cb69bc4)"><g clip-rule="nonzero" clip-path="url(#589e654bd8)"><path style=" stroke:none;fill-rule:nonzero;fill:#ff3131;fill-opacity:1;" d="M 74.839844 22.695312 L 74.828125 22.699219 C 73.691406 23.320312 72.496094 23.832031 71.238281 24.234375 C 70.03125 24.601562 68.789062 24.796875 67.515625 24.824219 C 64.898438 24.84375 62.523438 24.203125 60.390625 22.910156 C 59.1875 22.210938 58.179688 21.425781 57.375 20.5625 C 56.855469 20.054688 56.242188 19.246094 55.542969 18.136719 C 54.894531 17.054688 54.40625 15.875 54.070312 14.59375 C 53.753906 13.269531 53.5625 12.015625 53.496094 10.824219 C 52.910156 13.394531 53.25 15.996094 54.523438 18.628906 C 55.226562 20.011719 56.019531 21.144531 56.90625 22.027344 C 57.210938 22.34375 57.558594 22.667969 57.945312 23 C 58.324219 23.339844 58.894531 23.753906 59.660156 24.238281 C 62.054688 25.621094 64.707031 26.195312 67.617188 25.964844 C 68.921875 25.859375 70.25 25.519531 71.609375 24.945312 C 72.152344 24.714844 72.742188 24.394531 73.386719 23.980469 C 74.066406 23.535156 74.550781 23.105469 74.839844 22.695312 "/></g></g></g><g clip-rule="nonzero" clip-path="url(#cd90656fe6)"><g clip-rule="nonzero" clip-path="url(#45e7e99e6a)"><g clip-rule="nonzero" clip-path="url(#a7c282c80b)"><path style=" stroke:none;fill-rule:nonzero;fill:#ff3131;fill-opacity:1;" d="M 75.269531 21.828125 L 75.257812 21.832031 C 74.144531 22.492188 72.96875 23.046875 71.726562 23.496094 C 70.53125 23.90625 69.300781 24.148438 68.027344 24.222656 C 65.414062 24.335938 63.015625 23.78125 60.835938 22.566406 C 59.609375 21.910156 58.574219 21.164062 57.742188 20.332031 C 57.199219 19.839844 56.558594 19.054688 55.816406 17.976562 C 55.132812 16.917969 54.601562 15.753906 54.21875 14.484375 C 53.855469 13.175781 53.617188 11.925781 53.511719 10.742188 C 53.015625 13.332031 53.453125 15.917969 54.816406 18.503906 C 55.570312 19.859375 56.40625 20.960938 57.324219 21.8125 C 57.640625 22.117188 57.996094 22.425781 58.394531 22.75 C 58.785156 23.074219 59.375 23.464844 60.15625 23.917969 C 62.601562 25.214844 65.273438 25.695312 68.171875 25.359375 C 69.46875 25.207031 70.789062 24.816406 72.125 24.191406 C 72.65625 23.945312 73.238281 23.601562 73.863281 23.164062 C 74.527344 22.695312 74.996094 22.25 75.269531 21.828125 "/></g></g></g><g clip-rule="nonzero" clip-path="url(#9a9c0fc977)"><path style=" stroke:none;fill-rule:nonzero;fill:#ff3131;fill-opacity:1;" d="M 85.503906 12.863281 C 85.492188 12.941406 85.464844 13 85.421875 13.03125 C 85.382812 13.058594 85.335938 13.089844 85.273438 13.089844 C 85.214844 13.089844 85.164062 13.070312 85.117188 13.03125 C 85.074219 12.992188 85.054688 12.941406 85.054688 12.890625 C 85.054688 12.863281 85.066406 12.832031 85.074219 12.8125 C 85.085938 12.78125 85.125 12.753906 85.164062 12.710938 C 85.203125 12.671875 85.246094 12.644531 85.265625 12.613281 C 85.292969 12.582031 85.304688 12.554688 85.3125 12.523438 C 85.324219 12.503906 85.324219 12.484375 85.335938 12.464844 C 85.394531 12.433594 85.441406 12.375 85.441406 12.304688 L 85.441406 11.878906 C 85.441406 11.808594 85.402344 11.75 85.335938 11.71875 L 85.335938 1.53125 C 85.453125 1.472656 85.511719 1.453125 85.511719 1.453125 L 85.324219 1.351562 C 79.808594 3.675781 76.117188 11.265625 75.09375 13.566406 C 74.964844 13.617188 74.847656 13.726562 74.796875 13.863281 L 74.230469 15.402344 C 74.132812 15.660156 74.273438 15.957031 74.53125 16.054688 C 74.789062 16.15625 75.085938 16.015625 75.183594 15.757812 L 75.75 14.222656 C 75.789062 14.101562 75.789062 13.972656 75.75 13.863281 C 75.78125 13.792969 75.808594 13.714844 75.839844 13.644531 C 75.96875 13.863281 76.207031 14.011719 76.472656 14.011719 C 76.882812 14.011719 77.207031 13.683594 77.207031 13.277344 C 77.207031 12.871094 76.882812 12.542969 76.472656 12.542969 C 76.414062 12.542969 76.355469 12.554688 76.296875 12.5625 C 79.679688 4.824219 84.035156 2.195312 85.226562 1.601562 L 85.226562 11.71875 C 85.164062 11.75 85.117188 11.808594 85.117188 11.878906 L 85.117188 12.296875 C 85.117188 12.367188 85.15625 12.425781 85.214844 12.453125 C 85.214844 12.453125 85.214844 12.453125 85.214844 12.464844 C 85.203125 12.484375 85.195312 12.515625 85.183594 12.535156 C 85.175781 12.554688 85.144531 12.582031 85.097656 12.625 C 85.027344 12.683594 84.988281 12.734375 84.957031 12.773438 C 84.9375 12.8125 84.925781 12.863281 84.925781 12.910156 C 84.925781 13 84.957031 13.070312 85.027344 13.128906 C 85.097656 13.1875 85.175781 13.21875 85.292969 13.21875 C 85.394531 13.21875 85.484375 13.1875 85.542969 13.140625 C 85.601562 13.089844 85.640625 13 85.652344 12.902344 Z M 85.503906 12.863281 "/></g><g style="fill:#ffffff;fill-opacity:1;"><g transform="translate(2.123766, 33.774671)"><path style="stroke:none" d="M 2.171875 -3.109375 C 2.460938 -3.109375 2.722656 -3.039062 2.953125 -2.90625 C 3.191406 -2.78125 3.375 -2.597656 3.5 -2.359375 C 3.632812 -2.117188 3.703125 -1.847656 3.703125 -1.546875 C 3.703125 -1.242188 3.632812 -0.972656 3.5 -0.734375 C 3.375 -0.492188 3.191406 -0.304688 2.953125 -0.171875 C 2.722656 -0.0351562 2.460938 0.03125 2.171875 0.03125 C 1.898438 0.03125 1.648438 -0.0351562 1.421875 -0.171875 C 1.203125 -0.304688 1.03125 -0.492188 0.90625 -0.734375 L 0.90625 0 L 0.625 0 L 0.625 -4.390625 L 0.921875 -4.390625 L 0.921875 -2.390625 C 1.046875 -2.617188 1.21875 -2.796875 1.4375 -2.921875 C 1.65625 -3.046875 1.898438 -3.109375 2.171875 -3.109375 Z M 2.15625 -0.25 C 2.394531 -0.25 2.609375 -0.300781 2.796875 -0.40625 C 2.984375 -0.519531 3.128906 -0.675781 3.234375 -0.875 C 3.347656 -1.070312 3.40625 -1.296875 3.40625 -1.546875 C 3.40625 -1.796875 3.347656 -2.019531 3.234375 -2.21875 C 3.128906 -2.414062 2.984375 -2.566406 2.796875 -2.671875 C 2.609375 -2.785156 2.394531 -2.84375 2.15625 -2.84375 C 1.925781 -2.84375 1.71875 -2.785156 1.53125 -2.671875 C 1.34375 -2.566406 1.191406 -2.414062 1.078125 -2.21875 C 0.972656 -2.019531 0.921875 -1.796875 0.921875 -1.546875 C 0.921875 -1.296875 0.972656 -1.070312 1.078125 -0.875 C 1.191406 -0.675781 1.34375 -0.519531 1.53125 -0.40625 C 1.71875 -0.300781 1.925781 -0.25 2.15625 -0.25 Z M 2.15625 -0.25 "/></g></g><g style="fill:#ffffff;fill-opacity:1;"><g transform="translate(5.469196, 33.774671)"><path style="stroke:none" d="M 3.109375 -3.09375 L 1.515625 0.421875 C 1.398438 0.691406 1.265625 0.882812 1.109375 1 C 0.953125 1.113281 0.769531 1.171875 0.5625 1.171875 C 0.414062 1.171875 0.28125 1.144531 0.15625 1.09375 C 0.03125 1.050781 -0.0703125 0.984375 -0.15625 0.890625 L -0.015625 0.671875 C 0.140625 0.828125 0.332031 0.90625 0.5625 0.90625 C 0.707031 0.90625 0.832031 0.863281 0.9375 0.78125 C 1.050781 0.695312 1.15625 0.554688 1.25 0.359375 L 1.40625 -0.015625 L 0.015625 -3.09375 L 0.328125 -3.09375 L 1.5625 -0.328125 L 2.8125 -3.09375 Z M 3.109375 -3.09375 "/></g></g><g style="fill:#ffffff;fill-opacity:1;"><g transform="translate(8.037119, 33.774671)"><path style="stroke:none" d=""/></g></g><g style="fill:#ffffff;fill-opacity:1;"><g transform="translate(8.996338, 33.774671)"><path style="stroke:none" d=""/></g></g><g style="fill:#ffffff;fill-opacity:1;"><g transform="translate(9.956838, 33.774671)"><path style="stroke:none" d="M 4.03125 -4.140625 L 2.1875 0 L 1.890625 0 L 0.03125 -4.140625 L 0.359375 -4.140625 L 2.046875 -0.390625 L 3.71875 -4.140625 Z M 4.03125 -4.140625 "/></g></g><g style="fill:#ffffff;fill-opacity:1;"><g transform="translate(13.337797, 33.774671)"><path style="stroke:none" d="M 0.625 -3.09375 L 0.921875 -3.09375 L 0.921875 0 L 0.625 0 Z M 0.765625 -3.84375 C 0.703125 -3.84375 0.644531 -3.863281 0.59375 -3.90625 C 0.550781 -3.957031 0.53125 -4.015625 0.53125 -4.078125 C 0.53125 -4.148438 0.550781 -4.207031 0.59375 -4.25 C 0.644531 -4.300781 0.703125 -4.328125 0.765625 -4.328125 C 0.835938 -4.328125 0.894531 -4.300781 0.9375 -4.25 C 0.988281 -4.207031 1.015625 -4.15625 1.015625 -4.09375 C 1.015625 -4.019531 0.988281 -3.957031 0.9375 -3.90625 C 0.894531 -3.863281 0.835938 -3.84375 0.765625 -3.84375 Z M 0.765625 -3.84375 "/></g></g><g style="fill:#ffffff;fill-opacity:1;"><g transform="translate(14.320703, 33.774671)"><path style="stroke:none" d="M 2.140625 -3.109375 C 2.523438 -3.109375 2.828125 -2.992188 3.046875 -2.765625 C 3.273438 -2.546875 3.390625 -2.226562 3.390625 -1.8125 L 3.390625 0 L 3.09375 0 L 3.09375 -1.78125 C 3.09375 -2.125 3.003906 -2.382812 2.828125 -2.5625 C 2.648438 -2.75 2.40625 -2.84375 2.09375 -2.84375 C 1.726562 -2.84375 1.441406 -2.734375 1.234375 -2.515625 C 1.023438 -2.304688 0.921875 -2.015625 0.921875 -1.640625 L 0.921875 0 L 0.625 0 L 0.625 -3.09375 L 0.90625 -3.09375 L 0.90625 -2.421875 C 1.019531 -2.640625 1.179688 -2.804688 1.390625 -2.921875 C 1.597656 -3.046875 1.847656 -3.109375 2.140625 -3.109375 Z M 2.140625 -3.109375 "/></g></g><g style="fill:#ffffff;fill-opacity:1;"><g transform="translate(17.743102, 33.774671)"><path style="stroke:none" d="M 0.625 -3.09375 L 0.921875 -3.09375 L 0.921875 0 L 0.625 0 Z M 1.25 -4.296875 L 1.6875 -4.296875 L 0.75 -3.59375 L 0.4375 -3.59375 Z M 1.25 -4.296875 "/></g></g><g style="fill:#ffffff;fill-opacity:1;"><g transform="translate(18.726008, 33.774671)"><path style="stroke:none" d="M 1.859375 0.03125 C 1.554688 0.03125 1.285156 -0.0351562 1.046875 -0.171875 C 0.804688 -0.304688 0.617188 -0.492188 0.484375 -0.734375 C 0.359375 -0.972656 0.296875 -1.242188 0.296875 -1.546875 C 0.296875 -1.847656 0.359375 -2.117188 0.484375 -2.359375 C 0.617188 -2.597656 0.804688 -2.78125 1.046875 -2.90625 C 1.285156 -3.039062 1.554688 -3.109375 1.859375 -3.109375 C 2.109375 -3.109375 2.332031 -3.0625 2.53125 -2.96875 C 2.738281 -2.875 2.90625 -2.734375 3.03125 -2.546875 L 2.8125 -2.390625 C 2.695312 -2.546875 2.554688 -2.660156 2.390625 -2.734375 C 2.234375 -2.804688 2.054688 -2.84375 1.859375 -2.84375 C 1.617188 -2.84375 1.398438 -2.785156 1.203125 -2.671875 C 1.015625 -2.566406 0.863281 -2.414062 0.75 -2.21875 C 0.644531 -2.03125 0.59375 -1.804688 0.59375 -1.546875 C 0.59375 -1.285156 0.644531 -1.054688 0.75 -0.859375 C 0.863281 -0.660156 1.015625 -0.507812 1.203125 -0.40625 C 1.398438 -0.300781 1.617188 -0.25 1.859375 -0.25 C 2.054688 -0.25 2.234375 -0.285156 2.390625 -0.359375 C 2.554688 -0.429688 2.695312 -0.546875 2.8125 -0.703125 L 3.03125 -0.546875 C 2.90625 -0.359375 2.738281 -0.210938 2.53125 -0.109375 C 2.332031 -0.015625 2.109375 0.03125 1.859375 0.03125 Z M 1.859375 0.03125 "/></g></g><g style="fill:#ffffff;fill-opacity:1;"><g transform="translate(21.449721, 33.774671)"><path style="stroke:none" d="M 0.625 -3.09375 L 0.921875 -3.09375 L 0.921875 0 L 0.625 0 Z M 0.765625 -3.84375 C 0.703125 -3.84375 0.644531 -3.863281 0.59375 -3.90625 C 0.550781 -3.957031 0.53125 -4.015625 0.53125 -4.078125 C 0.53125 -4.148438 0.550781 -4.207031 0.59375 -4.25 C 0.644531 -4.300781 0.703125 -4.328125 0.765625 -4.328125 C 0.835938 -4.328125 0.894531 -4.300781 0.9375 -4.25 C 0.988281 -4.207031 1.015625 -4.15625 1.015625 -4.09375 C 1.015625 -4.019531 0.988281 -3.957031 0.9375 -3.90625 C 0.894531 -3.863281 0.835938 -3.84375 0.765625 -3.84375 Z M 0.765625 -3.84375 "/></g></g><g style="fill:#ffffff;fill-opacity:1;"><g transform="translate(22.432627, 33.774671)"><path style="stroke:none" d="M 3.328125 -3.09375 L 3.328125 0 L 3.046875 0 L 3.046875 -0.65625 C 2.941406 -0.445312 2.789062 -0.28125 2.59375 -0.15625 C 2.394531 -0.03125 2.160156 0.03125 1.890625 0.03125 C 1.484375 0.03125 1.164062 -0.0820312 0.9375 -0.3125 C 0.707031 -0.539062 0.59375 -0.863281 0.59375 -1.28125 L 0.59375 -3.09375 L 0.890625 -3.09375 L 0.890625 -1.3125 C 0.890625 -0.957031 0.976562 -0.691406 1.15625 -0.515625 C 1.332031 -0.335938 1.582031 -0.25 1.90625 -0.25 C 2.25 -0.25 2.519531 -0.351562 2.71875 -0.5625 C 2.925781 -0.78125 3.03125 -1.070312 3.03125 -1.4375 L 3.03125 -3.09375 Z M 3.328125 -3.09375 "/></g></g><g style="fill:#ffffff;fill-opacity:1;"><g transform="translate(25.831347, 33.774671)"><path style="stroke:none" d="M 1.40625 0.03125 C 1.15625 0.03125 0.914062 -0.00390625 0.6875 -0.078125 C 0.46875 -0.160156 0.296875 -0.257812 0.171875 -0.375 L 0.3125 -0.609375 C 0.4375 -0.503906 0.597656 -0.414062 0.796875 -0.34375 C 0.992188 -0.269531 1.203125 -0.234375 1.421875 -0.234375 C 1.734375 -0.234375 1.960938 -0.285156 2.109375 -0.390625 C 2.253906 -0.492188 2.328125 -0.632812 2.328125 -0.8125 C 2.328125 -0.945312 2.285156 -1.050781 2.203125 -1.125 C 2.128906 -1.195312 2.03125 -1.25 1.90625 -1.28125 C 1.789062 -1.320312 1.628906 -1.363281 1.421875 -1.40625 C 1.171875 -1.445312 0.972656 -1.492188 0.828125 -1.546875 C 0.679688 -1.597656 0.550781 -1.679688 0.4375 -1.796875 C 0.332031 -1.910156 0.28125 -2.066406 0.28125 -2.265625 C 0.28125 -2.515625 0.378906 -2.71875 0.578125 -2.875 C 0.785156 -3.03125 1.078125 -3.109375 1.453125 -3.109375 C 1.648438 -3.109375 1.84375 -3.082031 2.03125 -3.03125 C 2.226562 -2.976562 2.390625 -2.90625 2.515625 -2.8125 L 2.375 -2.578125 C 2.25 -2.671875 2.101562 -2.738281 1.9375 -2.78125 C 1.78125 -2.832031 1.617188 -2.859375 1.453125 -2.859375 C 1.160156 -2.859375 0.941406 -2.800781 0.796875 -2.6875 C 0.648438 -2.582031 0.578125 -2.445312 0.578125 -2.28125 C 0.578125 -2.132812 0.617188 -2.019531 0.703125 -1.9375 C 0.785156 -1.863281 0.882812 -1.804688 1 -1.765625 C 1.125 -1.734375 1.296875 -1.695312 1.515625 -1.65625 C 1.753906 -1.613281 1.945312 -1.566406 2.09375 -1.515625 C 2.25 -1.460938 2.375 -1.378906 2.46875 -1.265625 C 2.570312 -1.160156 2.625 -1.015625 2.625 -0.828125 C 2.625 -0.566406 2.515625 -0.359375 2.296875 -0.203125 C 2.085938 -0.046875 1.789062 0.03125 1.40625 0.03125 Z M 1.40625 0.03125 "/></g></g><g style="fill:#ffffff;fill-opacity:1;"><g transform="translate(28.099133, 33.774671)"><path style="stroke:none" d=""/></g></g><g style="fill:#ffffff;fill-opacity:1;"><g transform="translate(29.058353, 33.774671)"><path style="stroke:none" d="M 4.09375 -4.140625 L 4.09375 0 L 3.84375 0 L 1.03125 -3.59375 L 1.03125 0 L 0.71875 0 L 0.71875 -4.140625 L 0.984375 -4.140625 L 3.796875 -0.546875 L 3.796875 -4.140625 Z M 4.09375 -4.140625 "/></g></g><g style="fill:#ffffff;fill-opacity:1;"><g transform="translate(33.31563, 33.774671)"><path style="stroke:none" d="M 1.671875 -3.109375 C 2.054688 -3.109375 2.347656 -3.007812 2.546875 -2.8125 C 2.753906 -2.625 2.859375 -2.335938 2.859375 -1.953125 L 2.859375 0 L 2.578125 0 L 2.578125 -0.546875 C 2.472656 -0.367188 2.328125 -0.226562 2.140625 -0.125 C 1.953125 -0.0195312 1.726562 0.03125 1.46875 0.03125 C 1.125 0.03125 0.847656 -0.0507812 0.640625 -0.21875 C 0.441406 -0.382812 0.34375 -0.597656 0.34375 -0.859375 C 0.34375 -1.117188 0.4375 -1.328125 0.625 -1.484375 C 0.8125 -1.640625 1.101562 -1.71875 1.5 -1.71875 L 2.5625 -1.71875 L 2.5625 -1.96875 C 2.5625 -2.257812 2.484375 -2.476562 2.328125 -2.625 C 2.171875 -2.78125 1.941406 -2.859375 1.640625 -2.859375 C 1.441406 -2.859375 1.25 -2.820312 1.0625 -2.75 C 0.875 -2.675781 0.710938 -2.582031 0.578125 -2.46875 L 0.4375 -2.671875 C 0.582031 -2.816406 0.765625 -2.925781 0.984375 -3 C 1.203125 -3.070312 1.429688 -3.109375 1.671875 -3.109375 Z M 1.5 -0.21875 C 1.757812 -0.21875 1.976562 -0.273438 2.15625 -0.390625 C 2.332031 -0.515625 2.46875 -0.6875 2.5625 -0.90625 L 2.5625 -1.5 L 1.515625 -1.5 C 1.203125 -1.5 0.976562 -1.441406 0.84375 -1.328125 C 0.707031 -1.210938 0.640625 -1.0625 0.640625 -0.875 C 0.640625 -0.664062 0.710938 -0.503906 0.859375 -0.390625 C 1.015625 -0.273438 1.226562 -0.21875 1.5 -0.21875 Z M 2.140625 -4.296875 L 2.578125 -4.296875 L 1.640625 -3.59375 L 1.328125 -3.59375 Z M 2.140625 -4.296875 "/></g></g><g style="fill:#ffffff;fill-opacity:1;"><g transform="translate(36.205132, 33.774671)"><path style="stroke:none" d="M 0.90625 -2.421875 C 1 -2.640625 1.144531 -2.804688 1.34375 -2.921875 C 1.550781 -3.046875 1.800781 -3.109375 2.09375 -3.109375 L 2.09375 -2.828125 L 2.015625 -2.828125 C 1.671875 -2.828125 1.398438 -2.71875 1.203125 -2.5 C 1.015625 -2.289062 0.921875 -1.992188 0.921875 -1.609375 L 0.921875 0 L 0.625 0 L 0.625 -3.09375 L 0.90625 -3.09375 Z M 0.90625 -2.421875 "/></g></g><g style="fill:#ffffff;fill-opacity:1;"><g transform="translate(37.922253, 33.774671)"><path style="stroke:none" d="M 0.625 -3.09375 L 0.921875 -3.09375 L 0.921875 0 L 0.625 0 Z M 0.765625 -3.84375 C 0.703125 -3.84375 0.644531 -3.863281 0.59375 -3.90625 C 0.550781 -3.957031 0.53125 -4.015625 0.53125 -4.078125 C 0.53125 -4.148438 0.550781 -4.207031 0.59375 -4.25 C 0.644531 -4.300781 0.703125 -4.328125 0.765625 -4.328125 C 0.835938 -4.328125 0.894531 -4.300781 0.9375 -4.25 C 0.988281 -4.207031 1.015625 -4.15625 1.015625 -4.09375 C 1.015625 -4.019531 0.988281 -3.957031 0.9375 -3.90625 C 0.894531 -3.863281 0.835938 -3.84375 0.765625 -3.84375 Z M 0.765625 -3.84375 "/></g></g><g style="fill:#ffffff;fill-opacity:1;"><g transform="translate(38.905159, 33.774671)"><path style="stroke:none" d="M 1.828125 0.03125 C 1.535156 0.03125 1.269531 -0.0351562 1.03125 -0.171875 C 0.800781 -0.304688 0.617188 -0.492188 0.484375 -0.734375 C 0.359375 -0.972656 0.296875 -1.242188 0.296875 -1.546875 C 0.296875 -1.847656 0.359375 -2.117188 0.484375 -2.359375 C 0.617188 -2.597656 0.800781 -2.78125 1.03125 -2.90625 C 1.269531 -3.039062 1.535156 -3.109375 1.828125 -3.109375 C 2.128906 -3.109375 2.394531 -3.039062 2.625 -2.90625 C 2.863281 -2.78125 3.046875 -2.597656 3.171875 -2.359375 C 3.304688 -2.117188 3.375 -1.847656 3.375 -1.546875 C 3.375 -1.242188 3.304688 -0.972656 3.171875 -0.734375 C 3.046875 -0.492188 2.863281 -0.304688 2.625 -0.171875 C 2.394531 -0.0351562 2.128906 0.03125 1.828125 0.03125 Z M 1.828125 -0.25 C 2.066406 -0.25 2.28125 -0.300781 2.46875 -0.40625 C 2.65625 -0.519531 2.800781 -0.675781 2.90625 -0.875 C 3.019531 -1.070312 3.078125 -1.296875 3.078125 -1.546875 C 3.078125 -1.796875 3.019531 -2.019531 2.90625 -2.21875 C 2.800781 -2.414062 2.65625 -2.566406 2.46875 -2.671875 C 2.28125 -2.785156 2.066406 -2.84375 1.828125 -2.84375 C 1.597656 -2.84375 1.390625 -2.785156 1.203125 -2.671875 C 1.015625 -2.566406 0.863281 -2.414062 0.75 -2.21875 C 0.644531 -2.019531 0.59375 -1.796875 0.59375 -1.546875 C 0.59375 -1.296875 0.644531 -1.070312 0.75 -0.875 C 0.863281 -0.675781 1.015625 -0.519531 1.203125 -0.40625 C 1.390625 -0.300781 1.597656 -0.25 1.828125 -0.25 Z M 1.828125 -0.25 "/></g></g><g style="fill:#ffffff;fill-opacity:1;"><g transform="translate(42.013741, 33.774671)"><path style="stroke:none" d=""/></g></g><g style="fill:#ffffff;fill-opacity:1;"><g transform="translate(42.972961, 33.774671)"><path style="stroke:none" d="M 1.671875 -3.109375 C 2.054688 -3.109375 2.347656 -3.007812 2.546875 -2.8125 C 2.753906 -2.625 2.859375 -2.335938 2.859375 -1.953125 L 2.859375 0 L 2.578125 0 L 2.578125 -0.546875 C 2.472656 -0.367188 2.328125 -0.226562 2.140625 -0.125 C 1.953125 -0.0195312 1.726562 0.03125 1.46875 0.03125 C 1.125 0.03125 0.847656 -0.0507812 0.640625 -0.21875 C 0.441406 -0.382812 0.34375 -0.597656 0.34375 -0.859375 C 0.34375 -1.117188 0.4375 -1.328125 0.625 -1.484375 C 0.8125 -1.640625 1.101562 -1.71875 1.5 -1.71875 L 2.5625 -1.71875 L 2.5625 -1.96875 C 2.5625 -2.257812 2.484375 -2.476562 2.328125 -2.625 C 2.171875 -2.78125 1.941406 -2.859375 1.640625 -2.859375 C 1.441406 -2.859375 1.25 -2.820312 1.0625 -2.75 C 0.875 -2.675781 0.710938 -2.582031 0.578125 -2.46875 L 0.4375 -2.671875 C 0.582031 -2.816406 0.765625 -2.925781 0.984375 -3 C 1.203125 -3.070312 1.429688 -3.109375 1.671875 -3.109375 Z M 1.5 -0.21875 C 1.757812 -0.21875 1.976562 -0.273438 2.15625 -0.390625 C 2.332031 -0.515625 2.46875 -0.6875 2.5625 -0.90625 L 2.5625 -1.5 L 1.515625 -1.5 C 1.203125 -1.5 0.976562 -1.441406 0.84375 -1.328125 C 0.707031 -1.210938 0.640625 -1.0625 0.640625 -0.875 C 0.640625 -0.664062 0.710938 -0.503906 0.859375 -0.390625 C 1.015625 -0.273438 1.226562 -0.21875 1.5 -0.21875 Z M 1.5 -0.21875 "/></g></g><g style="fill:#ffffff;fill-opacity:1;"><g transform="translate(45.862463, 33.774671)"><path style="stroke:none" d="M 2.140625 -3.109375 C 2.523438 -3.109375 2.828125 -2.992188 3.046875 -2.765625 C 3.273438 -2.546875 3.390625 -2.226562 3.390625 -1.8125 L 3.390625 0 L 3.09375 0 L 3.09375 -1.78125 C 3.09375 -2.125 3.003906 -2.382812 2.828125 -2.5625 C 2.648438 -2.75 2.40625 -2.84375 2.09375 -2.84375 C 1.726562 -2.84375 1.441406 -2.734375 1.234375 -2.515625 C 1.023438 -2.304688 0.921875 -2.015625 0.921875 -1.640625 L 0.921875 0 L 0.625 0 L 0.625 -3.09375 L 0.90625 -3.09375 L 0.90625 -2.421875 C 1.019531 -2.640625 1.179688 -2.804688 1.390625 -2.921875 C 1.597656 -3.046875 1.847656 -3.109375 2.140625 -3.109375 Z M 2.140625 -3.109375 "/></g></g><g style="fill:#ffffff;fill-opacity:1;"><g transform="translate(49.29078, 33.774671)"><path style="stroke:none" d="M 3.375 -4.390625 L 3.375 0 L 3.078125 0 L 3.078125 -0.734375 C 2.960938 -0.484375 2.789062 -0.289062 2.5625 -0.15625 C 2.34375 -0.03125 2.09375 0.03125 1.8125 0.03125 C 1.53125 0.03125 1.269531 -0.0351562 1.03125 -0.171875 C 0.800781 -0.304688 0.617188 -0.492188 0.484375 -0.734375 C 0.359375 -0.972656 0.296875 -1.242188 0.296875 -1.546875 C 0.296875 -1.847656 0.359375 -2.117188 0.484375 -2.359375 C 0.617188 -2.597656 0.800781 -2.78125 1.03125 -2.90625 C 1.269531 -3.039062 1.53125 -3.109375 1.8125 -3.109375 C 2.09375 -3.109375 2.34375 -3.039062 2.5625 -2.90625 C 2.78125 -2.78125 2.953125 -2.601562 3.078125 -2.375 L 3.078125 -4.390625 Z M 1.828125 -0.25 C 2.066406 -0.25 2.28125 -0.300781 2.46875 -0.40625 C 2.65625 -0.519531 2.800781 -0.675781 2.90625 -0.875 C 3.019531 -1.070312 3.078125 -1.296875 3.078125 -1.546875 C 3.078125 -1.796875 3.019531 -2.019531 2.90625 -2.21875 C 2.800781 -2.414062 2.65625 -2.566406 2.46875 -2.671875 C 2.28125 -2.785156 2.066406 -2.84375 1.828125 -2.84375 C 1.597656 -2.84375 1.390625 -2.785156 1.203125 -2.671875 C 1.015625 -2.566406 0.863281 -2.414062 0.75 -2.21875 C 0.644531 -2.019531 0.59375 -1.796875 0.59375 -1.546875 C 0.59375 -1.296875 0.644531 -1.070312 0.75 -0.875 C 0.863281 -0.675781 1.015625 -0.519531 1.203125 -0.40625 C 1.390625 -0.300781 1.597656 -0.25 1.828125 -0.25 Z M 1.828125 -0.25 "/></g></g><g style="fill:#ffffff;fill-opacity:1;"><g transform="translate(52.725022, 33.774671)"><path style="stroke:none" d=""/></g></g><g style="fill:#ffffff;fill-opacity:1;"><g transform="translate(53.684242, 33.774671)"><path style="stroke:none" d="M 3.28125 -1.171875 L 0.875 -1.171875 L 0.359375 0 L 0.03125 0 L 1.9375 -4.140625 L 2.234375 -4.140625 L 4.140625 0 L 3.8125 0 Z M 3.171875 -1.421875 L 2.078125 -3.8125 L 1 -1.421875 Z M 3.171875 -1.421875 "/></g></g><g style="fill:#ffffff;fill-opacity:1;"><g transform="translate(57.296116, 33.774671)"><path style="stroke:none" d="M 0.625 -4.390625 L 0.921875 -4.390625 L 0.921875 0 L 0.625 0 Z M 0.625 -4.390625 "/></g></g><g style="fill:#ffffff;fill-opacity:1;"><g transform="translate(58.279022, 33.774671)"><path style="stroke:none" d="M 3.234375 -1.46875 L 0.578125 -1.46875 C 0.585938 -1.226562 0.648438 -1.015625 0.765625 -0.828125 C 0.878906 -0.640625 1.03125 -0.492188 1.21875 -0.390625 C 1.414062 -0.296875 1.640625 -0.25 1.890625 -0.25 C 2.085938 -0.25 2.269531 -0.285156 2.4375 -0.359375 C 2.613281 -0.429688 2.757812 -0.535156 2.875 -0.671875 L 3.046875 -0.484375 C 2.910156 -0.316406 2.738281 -0.1875 2.53125 -0.09375 C 2.332031 -0.0078125 2.117188 0.03125 1.890625 0.03125 C 1.578125 0.03125 1.300781 -0.0351562 1.0625 -0.171875 C 0.820312 -0.304688 0.632812 -0.492188 0.5 -0.734375 C 0.363281 -0.972656 0.296875 -1.242188 0.296875 -1.546875 C 0.296875 -1.847656 0.359375 -2.117188 0.484375 -2.359375 C 0.609375 -2.597656 0.78125 -2.78125 1 -2.90625 C 1.226562 -3.039062 1.484375 -3.109375 1.765625 -3.109375 C 2.046875 -3.109375 2.296875 -3.039062 2.515625 -2.90625 C 2.742188 -2.78125 2.921875 -2.597656 3.046875 -2.359375 C 3.179688 -2.117188 3.25 -1.851562 3.25 -1.5625 Z M 1.765625 -2.859375 C 1.546875 -2.859375 1.347656 -2.804688 1.171875 -2.703125 C 1.003906 -2.609375 0.867188 -2.472656 0.765625 -2.296875 C 0.660156 -2.117188 0.601562 -1.921875 0.59375 -1.703125 L 2.953125 -1.703125 C 2.941406 -1.921875 2.882812 -2.117188 2.78125 -2.296875 C 2.675781 -2.472656 2.535156 -2.609375 2.359375 -2.703125 C 2.179688 -2.804688 1.984375 -2.859375 1.765625 -2.859375 Z M 1.765625 -2.859375 "/></g></g><g style="fill:#ffffff;fill-opacity:1;"><g transform="translate(61.162606, 33.774671)"><path style="stroke:none" d="M 2.59375 0 L 1.53125 -1.375 L 0.46875 0 L 0.140625 0 L 1.359375 -1.59375 L 0.203125 -3.09375 L 0.53125 -3.09375 L 1.53125 -1.8125 L 2.53125 -3.09375 L 2.859375 -3.09375 L 1.703125 -1.59375 L 2.9375 0 Z M 2.59375 0 "/></g></g><g style="fill:#ffffff;fill-opacity:1;"><g transform="translate(63.61395, 33.774671)"><path style="stroke:none" d="M 1.671875 -3.109375 C 2.054688 -3.109375 2.347656 -3.007812 2.546875 -2.8125 C 2.753906 -2.625 2.859375 -2.335938 2.859375 -1.953125 L 2.859375 0 L 2.578125 0 L 2.578125 -0.546875 C 2.472656 -0.367188 2.328125 -0.226562 2.140625 -0.125 C 1.953125 -0.0195312 1.726562 0.03125 1.46875 0.03125 C 1.125 0.03125 0.847656 -0.0507812 0.640625 -0.21875 C 0.441406 -0.382812 0.34375 -0.597656 0.34375 -0.859375 C 0.34375 -1.117188 0.4375 -1.328125 0.625 -1.484375 C 0.8125 -1.640625 1.101562 -1.71875 1.5 -1.71875 L 2.5625 -1.71875 L 2.5625 -1.96875 C 2.5625 -2.257812 2.484375 -2.476562 2.328125 -2.625 C 2.171875 -2.78125 1.941406 -2.859375 1.640625 -2.859375 C 1.441406 -2.859375 1.25 -2.820312 1.0625 -2.75 C 0.875 -2.675781 0.710938 -2.582031 0.578125 -2.46875 L 0.4375 -2.671875 C 0.582031 -2.816406 0.765625 -2.925781 0.984375 -3 C 1.203125 -3.070312 1.429688 -3.109375 1.671875 -3.109375 Z M 1.5 -0.21875 C 1.757812 -0.21875 1.976562 -0.273438 2.15625 -0.390625 C 2.332031 -0.515625 2.46875 -0.6875 2.5625 -0.90625 L 2.5625 -1.5 L 1.515625 -1.5 C 1.203125 -1.5 0.976562 -1.441406 0.84375 -1.328125 C 0.707031 -1.210938 0.640625 -1.0625 0.640625 -0.875 C 0.640625 -0.664062 0.710938 -0.503906 0.859375 -0.390625 C 1.015625 -0.273438 1.226562 -0.21875 1.5 -0.21875 Z M 1.5 -0.21875 "/></g></g><g style="fill:#ffffff;fill-opacity:1;"><g transform="translate(66.503452, 33.774671)"><path style="stroke:none" d="M 2.140625 -3.109375 C 2.523438 -3.109375 2.828125 -2.992188 3.046875 -2.765625 C 3.273438 -2.546875 3.390625 -2.226562 3.390625 -1.8125 L 3.390625 0 L 3.09375 0 L 3.09375 -1.78125 C 3.09375 -2.125 3.003906 -2.382812 2.828125 -2.5625 C 2.648438 -2.75 2.40625 -2.84375 2.09375 -2.84375 C 1.726562 -2.84375 1.441406 -2.734375 1.234375 -2.515625 C 1.023438 -2.304688 0.921875 -2.015625 0.921875 -1.640625 L 0.921875 0 L 0.625 0 L 0.625 -3.09375 L 0.90625 -3.09375 L 0.90625 -2.421875 C 1.019531 -2.640625 1.179688 -2.804688 1.390625 -2.921875 C 1.597656 -3.046875 1.847656 -3.109375 2.140625 -3.109375 Z M 2.140625 -3.109375 "/></g></g><g style="fill:#ffffff;fill-opacity:1;"><g transform="translate(69.931769, 33.774671)"><path style="stroke:none" d="M 3.375 -4.390625 L 3.375 0 L 3.078125 0 L 3.078125 -0.734375 C 2.960938 -0.484375 2.789062 -0.289062 2.5625 -0.15625 C 2.34375 -0.03125 2.09375 0.03125 1.8125 0.03125 C 1.53125 0.03125 1.269531 -0.0351562 1.03125 -0.171875 C 0.800781 -0.304688 0.617188 -0.492188 0.484375 -0.734375 C 0.359375 -0.972656 0.296875 -1.242188 0.296875 -1.546875 C 0.296875 -1.847656 0.359375 -2.117188 0.484375 -2.359375 C 0.617188 -2.597656 0.800781 -2.78125 1.03125 -2.90625 C 1.269531 -3.039062 1.53125 -3.109375 1.8125 -3.109375 C 2.09375 -3.109375 2.34375 -3.039062 2.5625 -2.90625 C 2.78125 -2.78125 2.953125 -2.601562 3.078125 -2.375 L 3.078125 -4.390625 Z M 1.828125 -0.25 C 2.066406 -0.25 2.28125 -0.300781 2.46875 -0.40625 C 2.65625 -0.519531 2.800781 -0.675781 2.90625 -0.875 C 3.019531 -1.070312 3.078125 -1.296875 3.078125 -1.546875 C 3.078125 -1.796875 3.019531 -2.019531 2.90625 -2.21875 C 2.800781 -2.414062 2.65625 -2.566406 2.46875 -2.671875 C 2.28125 -2.785156 2.066406 -2.84375 1.828125 -2.84375 C 1.597656 -2.84375 1.390625 -2.785156 1.203125 -2.671875 C 1.015625 -2.566406 0.863281 -2.414062 0.75 -2.21875 C 0.644531 -2.019531 0.59375 -1.796875 0.59375 -1.546875 C 0.59375 -1.296875 0.644531 -1.070312 0.75 -0.875 C 0.863281 -0.675781 1.015625 -0.519531 1.203125 -0.40625 C 1.390625 -0.300781 1.597656 -0.25 1.828125 -0.25 Z M 1.828125 -0.25 "/></g></g><g style="fill:#ffffff;fill-opacity:1;"><g transform="translate(73.366011, 33.774671)"><path style="stroke:none" d="M 0.90625 -2.421875 C 1 -2.640625 1.144531 -2.804688 1.34375 -2.921875 C 1.550781 -3.046875 1.800781 -3.109375 2.09375 -3.109375 L 2.09375 -2.828125 L 2.015625 -2.828125 C 1.671875 -2.828125 1.398438 -2.71875 1.203125 -2.5 C 1.015625 -2.289062 0.921875 -1.992188 0.921875 -1.609375 L 0.921875 0 L 0.625 0 L 0.625 -3.09375 L 0.90625 -3.09375 Z M 0.90625 -2.421875 "/></g></g><g style="fill:#ffffff;fill-opacity:1;"><g transform="translate(75.053528, 33.774671)"><path style="stroke:none" d="M 3.234375 -1.46875 L 0.578125 -1.46875 C 0.585938 -1.226562 0.648438 -1.015625 0.765625 -0.828125 C 0.878906 -0.640625 1.03125 -0.492188 1.21875 -0.390625 C 1.414062 -0.296875 1.640625 -0.25 1.890625 -0.25 C 2.085938 -0.25 2.269531 -0.285156 2.4375 -0.359375 C 2.613281 -0.429688 2.757812 -0.535156 2.875 -0.671875 L 3.046875 -0.484375 C 2.910156 -0.316406 2.738281 -0.1875 2.53125 -0.09375 C 2.332031 -0.0078125 2.117188 0.03125 1.890625 0.03125 C 1.578125 0.03125 1.300781 -0.0351562 1.0625 -0.171875 C 0.820312 -0.304688 0.632812 -0.492188 0.5 -0.734375 C 0.363281 -0.972656 0.296875 -1.242188 0.296875 -1.546875 C 0.296875 -1.847656 0.359375 -2.117188 0.484375 -2.359375 C 0.609375 -2.597656 0.78125 -2.78125 1 -2.90625 C 1.226562 -3.039062 1.484375 -3.109375 1.765625 -3.109375 C 2.046875 -3.109375 2.296875 -3.039062 2.515625 -2.90625 C 2.742188 -2.78125 2.921875 -2.597656 3.046875 -2.359375 C 3.179688 -2.117188 3.25 -1.851562 3.25 -1.5625 Z M 1.765625 -2.859375 C 1.546875 -2.859375 1.347656 -2.804688 1.171875 -2.703125 C 1.003906 -2.609375 0.867188 -2.472656 0.765625 -2.296875 C 0.660156 -2.117188 0.601562 -1.921875 0.59375 -1.703125 L 2.953125 -1.703125 C 2.941406 -1.921875 2.882812 -2.117188 2.78125 -2.296875 C 2.675781 -2.472656 2.535156 -2.609375 2.359375 -2.703125 C 2.179688 -2.804688 1.984375 -2.859375 1.765625 -2.859375 Z M 1.765625 -2.859375 "/></g></g><g style="fill:#ffffff;fill-opacity:1;"><g transform="translate(78.025925, 33.774671)"><path style="stroke:none" d=""/></g></g><g style="fill:#ffffff;fill-opacity:1;"><g transform="translate(78.985144, 33.774671)"><path style="stroke:none" d="M 4.03125 -4.140625 L 2.1875 0 L 1.890625 0 L 0.03125 -4.140625 L 0.359375 -4.140625 L 2.046875 -0.390625 L 3.71875 -4.140625 Z M 4.03125 -4.140625 "/></g></g><g style="fill:#ffffff;fill-opacity:1;"><g transform="translate(82.366103, 33.774671)"><path style="stroke:none" d="M 0.625 -3.09375 L 0.921875 -3.09375 L 0.921875 0 L 0.625 0 Z M 0.765625 -3.84375 C 0.703125 -3.84375 0.644531 -3.863281 0.59375 -3.90625 C 0.550781 -3.957031 0.53125 -4.015625 0.53125 -4.078125 C 0.53125 -4.148438 0.550781 -4.207031 0.59375 -4.25 C 0.644531 -4.300781 0.703125 -4.328125 0.765625 -4.328125 C 0.835938 -4.328125 0.894531 -4.300781 0.9375 -4.25 C 0.988281 -4.207031 1.015625 -4.15625 1.015625 -4.09375 C 1.015625 -4.019531 0.988281 -3.957031 0.9375 -3.90625 C 0.894531 -3.863281 0.835938 -3.84375 0.765625 -3.84375 Z M 0.765625 -3.84375 "/></g></g><g style="fill:#ffffff;fill-opacity:1;"><g transform="translate(83.34901, 33.774671)"><path style="stroke:none" d="M 2.15625 -0.203125 C 2.082031 -0.128906 1.988281 -0.0703125 1.875 -0.03125 C 1.769531 0.0078125 1.65625 0.03125 1.53125 0.03125 C 1.257812 0.03125 1.050781 -0.0390625 0.90625 -0.1875 C 0.757812 -0.34375 0.6875 -0.550781 0.6875 -0.8125 L 0.6875 -2.84375 L 0.125 -2.84375 L 0.125 -3.09375 L 0.6875 -3.09375 L 0.6875 -3.765625 L 0.984375 -3.765625 L 0.984375 -3.09375 L 1.96875 -3.09375 L 1.96875 -2.84375 L 0.984375 -2.84375 L 0.984375 -0.84375 C 0.984375 -0.644531 1.03125 -0.492188 1.125 -0.390625 C 1.21875 -0.285156 1.363281 -0.234375 1.5625 -0.234375 C 1.75 -0.234375 1.90625 -0.289062 2.03125 -0.40625 Z M 2.15625 -0.203125 "/></g></g><g style="fill:#ffffff;fill-opacity:1;"><g transform="translate(85.030609, 33.774671)"><path style="stroke:none" d="M 1.828125 0.03125 C 1.535156 0.03125 1.269531 -0.0351562 1.03125 -0.171875 C 0.800781 -0.304688 0.617188 -0.492188 0.484375 -0.734375 C 0.359375 -0.972656 0.296875 -1.242188 0.296875 -1.546875 C 0.296875 -1.847656 0.359375 -2.117188 0.484375 -2.359375 C 0.617188 -2.597656 0.800781 -2.78125 1.03125 -2.90625 C 1.269531 -3.039062 1.535156 -3.109375 1.828125 -3.109375 C 2.128906 -3.109375 2.394531 -3.039062 2.625 -2.90625 C 2.863281 -2.78125 3.046875 -2.597656 3.171875 -2.359375 C 3.304688 -2.117188 3.375 -1.847656 3.375 -1.546875 C 3.375 -1.242188 3.304688 -0.972656 3.171875 -0.734375 C 3.046875 -0.492188 2.863281 -0.304688 2.625 -0.171875 C 2.394531 -0.0351562 2.128906 0.03125 1.828125 0.03125 Z M 1.828125 -0.25 C 2.066406 -0.25 2.28125 -0.300781 2.46875 -0.40625 C 2.65625 -0.519531 2.800781 -0.675781 2.90625 -0.875 C 3.019531 -1.070312 3.078125 -1.296875 3.078125 -1.546875 C 3.078125 -1.796875 3.019531 -2.019531 2.90625 -2.21875 C 2.800781 -2.414062 2.65625 -2.566406 2.46875 -2.671875 C 2.28125 -2.785156 2.066406 -2.84375 1.828125 -2.84375 C 1.597656 -2.84375 1.390625 -2.785156 1.203125 -2.671875 C 1.015625 -2.566406 0.863281 -2.414062 0.75 -2.21875 C 0.644531 -2.019531 0.59375 -1.796875 0.59375 -1.546875 C 0.59375 -1.296875 0.644531 -1.070312 0.75 -0.875 C 0.863281 -0.675781 1.015625 -0.519531 1.203125 -0.40625 C 1.390625 -0.300781 1.597656 -0.25 1.828125 -0.25 Z M 1.828125 -0.25 "/></g></g><g style="fill:#ffffff;fill-opacity:1;"><g transform="translate(88.13919, 33.774671)"><path style="stroke:none" d="M 0.90625 -2.421875 C 1 -2.640625 1.144531 -2.804688 1.34375 -2.921875 C 1.550781 -3.046875 1.800781 -3.109375 2.09375 -3.109375 L 2.09375 -2.828125 L 2.015625 -2.828125 C 1.671875 -2.828125 1.398438 -2.71875 1.203125 -2.5 C 1.015625 -2.289062 0.921875 -1.992188 0.921875 -1.609375 L 0.921875 0 L 0.625 0 L 0.625 -3.09375 L 0.90625 -3.09375 Z M 0.90625 -2.421875 "/></g></g><g style="fill:#ffffff;fill-opacity:1;"><g transform="translate(75.435615, 24.352402)"><path style="stroke:none" d="M 11.6875 -11.59375 L 10.515625 0.984375 L 7.984375 0.75 L 8.078125 -0.3125 C 7.347656 0.425781 6.363281 0.738281 5.125 0.625 C 4.257812 0.539062 3.5 0.273438 2.84375 -0.171875 C 2.1875 -0.617188 1.691406 -1.21875 1.359375 -1.96875 C 1.035156 -2.726562 0.914062 -3.578125 1 -4.515625 C 1.09375 -5.453125 1.367188 -6.253906 1.828125 -6.921875 C 2.285156 -7.597656 2.878906 -8.09375 3.609375 -8.40625 C 4.335938 -8.726562 5.132812 -8.847656 6 -8.765625 C 7.164062 -8.660156 8.046875 -8.210938 8.640625 -7.421875 L 9.046875 -11.84375 Z M 5.78125 -1.515625 C 6.445312 -1.453125 7.019531 -1.628906 7.5 -2.046875 C 7.988281 -2.460938 8.269531 -3.054688 8.34375 -3.828125 C 8.414062 -4.585938 8.25 -5.21875 7.84375 -5.71875 C 7.445312 -6.226562 6.914062 -6.515625 6.25 -6.578125 C 5.570312 -6.640625 4.988281 -6.457031 4.5 -6.03125 C 4.019531 -5.613281 3.742188 -5.023438 3.671875 -4.265625 C 3.597656 -3.492188 3.757812 -2.859375 4.15625 -2.359375 C 4.5625 -1.859375 5.101562 -1.578125 5.78125 -1.515625 Z M 5.78125 -1.515625 "/></g></g></g></svg>